<svg width="475.94" height="761.34" xmlns="http://www.w3.org/2000/svg">
    <path d="M452.6 0c-5.273 1.603-10.123 3.506-15.379 6.719-7.14 4.363-16.63 9.712-36.062 9.898-24.065.23-26.12-15.283-39.156-15.203-8.82.054-12.984 8.557-25.301 9.281-.062 3.341-5.125 6.354-25.965 7.073-12.185.42-18.288-2.742-20.684-4.862-13.736-.508-22.292-11.01-38.537-11.139-14.964-.117-36.616 13.14-49.521 20.37-4.638 2.597-14.461 4.898-16.77 11.628-11.956 1.078-22.559 9.352-26.781 14.584-7.523-5.24-15.433-16.785-25.9-17.025-7.514-.172-13.623 4.694-22.162 5.07-10.46.464-23.393-3.005-33.451 2.266-4.773 2.502-5.632 5.626-7.186 7.2-1.745 1.765-4.091-.722-7.882 5.462-9.966 24.755-6.784 63.915-5.32 88.533 1.521 22.244 7.27 68.017 19.93 99.693L108.466 231c-7.222-22.228-21.704-67.443-23.188-102.38-.61-14.396.035-49.19 1.328-52.605 2.25-5.931 3.97-8.608 6.793-14.293 3.33-6.704 8.911-6.053 13.98-10.113 1.612-1.292 8.618-3.195 11.264-3.262 8.05-.205 21.535 3.47 18.855 16.977-30.167 14.446-19.146 17.078-42.875 27.477 4.593 60.446 15.147 103.97 24.926 137.71 12.074.21 22.155-.496 36.604 1.873 32.897 3.635 42.691 37.684 48.221 61.188 8.617 36.627 11.798 59.59 12.666 68.717 3.531 37.147 1.036 83.184-4.056 139.26-3.156 34.748-49.077 41.08-97.936 46.465 7.107 38.546 25.448 72.888 39.775 96.203 9.398 15.294 23.899 24.909 35.25 35.734 19.21 18.322 61.108 38.115 80.172 39.287 3.15.194-9.635-17.684-7.227-25.291 1.678-5.3 14.547 23.068 22.883 37.914 3.258 4.493 9.23 8.55 16.971 15.293 19.033 12.549 45.611 18.054 64.088 11.24 23.633-8.715 21.831-23.635 35.764-45.535 7.454-11.716 10.644-28.54 13.09-39.5 3.956-1.208 12.34-18.887 11.25-37.25-17.182 2.054-38.325 6.986-47.113 7.594-30.846 2.134-64.872-22.805-72.637-34.844-1.599-2.48-1.198-6.117-2.984-8.44-6.744-8.77-7.58-11.53-3.826-14.875 3.768 3.862 10.96 18.661 13.85 18.461 3.137-.218 18.205 17.676 36.38 24.5 14.72 5.525 54.414.243 64.255-2.492 14.585-4.054 41.804-14.608 35.699-57.787-1.59-11.249-23.052-33.312-27.375-32.479-5.89 1.135-16.425 5.325-21.641 7.732-1.947.9 2.663 9.028 3.29 10.19 5.868 10.87 2.276 38.636-19.974 44.37-11.58 2.985-33.814-4.515-41.041-9.226-10.377-6.767-20.69-14.624-25.074-19.061.714-10.796-16-23.144-19.59-36.08-3.258-11.734-9.912-44.037-11.938-65.385-1.248-13.15 3.677-32.26 7.185-45.57 3.705-14.056 13.7-17.124 16.08-10.076 7.505 22.213 19.548 55.008 39.043 68.889 13.676 9.737 34.056 11.277 42.785 11.826 10.597-.09 16.583-.5 26.865-5.215 3.644-1.67 7.95-6.026 8.815-17.205 1.045-13.509-23.931-7.139-26.957-29.344-1.416-10.388 2.236-16.716 4.064-23.336-6.245-8.273-18.313-11.78-29.078-2.74-2.554-8.445 4.517-15.84 13.787-16.705 27.117-2.534 24.42 26.675 55.508 28.107 29.38 1.353 32.654-24.593 29.547-53.805-3.565-33.521-77.035-39.156-79.074-138.19-.4-19.425 7.24-26.102 28.58-33.486-1.47 5.525.847 2.488 2.598 1.55 5.926-3.171 17.175 22.017 17.178 8.38.003-13.097-25.911-98.738-50.133-97.123-5.89.393-19.95 6.398-30.076 8.908-14.521 3.599-7.21 5.325-.188 9.408 4.902 2.85 9.4 7.974 9.887 12.223-25.072-.903-48.51 10.2-58.16 13.521-11.824 4.07-34.287 10.703-67.723 11.869-7.474 9.027-13.305 21.255-23.08 27.639-12 7.836-29.192 10.602-45.027 18.055-8.05 3.789-28.271 20.089-23.107 11.305 20.468-34.821 36.74-20.649 55.084-38.371 4.562-.94 16.16-7.713 14.76-20.596-.875-8.058-.119-13.69 10.52-12.373 26.688 3.304 35.805-2.165 56.346-8.27 15.885-4.72 34.085-9.804 37.61-14.535-7.663-6.24-20.617-11.478-25.456-18.387-1.644-2.346 4.42-2.03 4.42-2.03.138-.984.422-2.263.795-3.716 7.387 2.204 60.698.67 79.51-11.945 16.312-10.938 34.394-21.113 37.693-27.209 6.465-.437 18.144-10.725 19.887-29.609 10.96-4.978 6.221-21.91 4.773-40.129h-.004zM40.76 148.16c-1.193-.034-3.377 2.45-7.316 9.408-11.973 21.15-31.842 82.936-33.375 147.34-1.151 48.31 11.764 48.971 14.656 77.371 0 0 6.2 5.777 8.574 14.053 4.38 15.283 1.403-17.71 2.92-29.85 5.996-47.97 1.893-98.086 27.309-111.39 6.115-3.202 6.161-.578 6.976-6.158.35-2.386 1.693-4.631-.13-10.111-6.02-18.091-17.389-66.428-18.265-86.926v-.008c-.092-2.153-.421-3.702-1.35-3.728zm247.4 58.467c14.21.134 27.775 12.143 33.951 20.309 4.81 6.359.602 4.918 3.916 8.178 2.59 2.547 2.235 5.965 1.898 8.133-1.304 8.397.703 4.124 3.801 5.037 2.748.81 6.786 3.495 7.07 6.85.258 3.02-2.468 7.902-5.476 7.513-4.028-.52-6.788-6.154-6.584-10.682.13-2.878-3.136.588-6.192-4.211-8.05-12.648-21.262-29.197-27.93-28.107-8.514 1.392-15.647 13.097-17.146 20.771-1.12 5.734-1.114 20.135.266 26.428 4.408.434 4.317 5.66 3.979 8.838-.374 3.503-1.05 7.907-4.508 8.574-9.532 1.838-13.397-30.462-12.906-41.277.664-14.637 3.75-35.384 24.484-36.328.46-.02.918-.03 1.377-.025zm133.78 7.6c-10.883.105-15.898 18.674-15.375 29.545 1.472 30.583 17.448 45.295 31.445 63.656 3.458 4.536 6.119 8.696 6.555.423.303-5.76-2.16-13.904-2.272-21.33-.168-11.335 2.069-14.46 3.059-31.7.97-16.92-10.44-40.72-23.412-40.595zm-296.25 29.5c-2.447 11.005-8.292 20.515-9.152 29.766-1.134 12.187 9.452 12.805 13.422 12.719 6.013-.13 13.17-3.06 12.525-7.836-1.355-10.028.205-34.648.205-34.648h-17zm25.154.138c-3.769 5.16-4.938 11.112-4.713 16.88.332 8.507 1.51 19.52.553 26.061-3.476-.156-5.5 3.838-6.664 5.57h-.002c.87 1.067 2.247 1.93 3.447 2.335 9.762-18.088 33.542-20.193 33.172-35.561-.323-13.404-25.793-15.285-25.793-15.285zm-31.436 2.102c-4.98.707-19.452 2.875-22.346 6.836-4.642 6.352 5.362 15.88 4.844 26.752-.23 4.815-1.766 11.235-6.586 11.338-5.686.124-11.244-10.515-9.156-13.881 2.735 1.867 5.102 8.772 8.892 7.31 5.403-2.084-5.998-29.23-5.998-29.23-6.107 1.26-25.739 7.906-25.252 18.414.603 13.017 15.578 6.689 13.902 26.32l37.748-9.726s-2.953-8.998-3.025-13.416c-.17-10.38 6.246-15.864 6.976-30.717zm309.24 3.994c3.979 7.373 8.572 12.94 8.75 25.014.078 5.205-3.283 13.012-8.484 12.816-7.501-.282-11.172-11.64-10.871-18.826.374-8.917 3.39-18.288 10.605-19.004zm-116.91 6.121c2.419 1.397 7.26 10.71 8.602 15.637 0 0 1.402 25.438-8.174 26.328-7.38.686-12.425-13.56-12.572-21.922-.226-12.824 9.44-20.314 12.145-20.043zm-128.05 8.645l-2.002.002c-8.624 11.72-31.604 18.027-31.561 31.125.014 4.108 5.082 7.32 9.187 7.5 9.307.408 19.25-7.974 31.188-11.69-.657-10.87-4.764-22-6.812-26.937zm153.45 3.603v.002c3.324.19 3.042 5.364 2.611 6.942-.39 1.427-1.823.16-2.771-.973-1.07-1.28-1.503-6.065.16-5.97zm-279.28 4.418c-.82.044-1.766 1.204-2.346 1.735-2.773 2.543-5.87 11.356-7.857 17.943v.002c4.329 1.623 8.224 6.279 13.23 10.439 1.125.935 7.282 3.812 10.775-1.907.765-1.253 2.052-5.922.973-11.56-.467-2.44-3.68-1.832-4.897-2.428-3.11-1.524-7.962-7.44-8.434-11.482-.248-2.136-.808-2.777-1.445-2.743zm221.59 16.396c2.574-.184 4.093 5.717 3.914 7.46-.767 7.478-4.953 3.145-6.062.75-1.616-3.489-1.223-7.969 2.148-8.21zm-86.764 9.703c-14.811-.195-18.607 11.47-41.004 10.03h-.002c.338 8.57 2.167 16.006 5.272 19.604 12.367-10.956 24.635-3.43 37.734-6.75l-2-22.885zm-142.18.018s-5.962 1.253-5.818 9.926c.24 14.426 11.88 17.855 11.88 17.855.954-7.24 2.929-12.983 7.089-15.943-4.272-3.691-9.913-7.344-13.15-11.838zm72.482 3.07v.002c-13.058.413-38.16 4.23-49.816 13.215-12.702 9.792-10.219 30.42-9.758 43.62.527 15.091.78 44.448 8.29 64.02 6.34 16.524 24.151 43.3 49.517 42.75 21.948-.476 25.781-14.112 28.94-48.22 1.684-18.214-1.93-47.802-5.628-68.339-4.71-26.163-5.507-47.557-21.545-47.049zm-16.885 12.53c10.082.223 17.314 6.967 18.932 14.331 4.042 18.395 4.621 41.166 8.115 63.648 3.031 19.508 7.06 34.306 5.746 43.047-1.51 10.055-7.42 21.093-26.643 21.715-10.568.342-10.207-9.166-10.207-9.166s5.792 1.626 9.327 1.287c18.225-1.747 19.06-10.923 18.988-16.787-.14-11.262-13.034-54.745-14.621-73.33-1.124-13.16-3.34-36.425-13.445-36.32-12.027.124-17.236 14.76-27.566 15.99-2.156.257-6.063-4.566-2.254-8.127 8.235-7.7 18.186-15.384 31.574-16.246a23.771 23.771 0 012.054-.043zm-64.246 10.54l-.113 17.508c8.87-1.099 11.57-2.031 11.63-3.205.414-7.972-6.887-14.598-11.517-14.303zm127.38 2.09c-.459.005-.918.026-1.375.062-4.956.401-9.288 5.572-8.625 10.5 1.972 14.671 27.237 11.508 40.088 19.188-.581-13.02 2.181-30.145-9.338-27.875-6.236 1.229-13.826-1.957-20.75-1.875zm187 7.693c14.997-.189 31.023 14.067 35.178 28.44.406 1.404-2.544 8.712-5.033 2.708-4.098-9.88-15.801-23.169-28.631-21.592-14.283 1.756-17.941 11.93-17.758 24.406-.052 27.43 21.615 67.516 34.797 67.352 5.473-.336 9.338-9.066 10.25-12.375 1.523-5.53 6.637 3.224 6.375 6.625-.76 9.854-4.678 9.386-6.696 10.713-2.141 1.407.527 7.942-13.18 8.287-26.19.66-38.06-41.27-40.956-51.277-1.42-4.902 1.302-7.764-5.481-7.347-14.195.873-14.791 5.275-16.721 4.77-22.748-5.966-34.931 27.593-37.363 42.892-4.965 31.235-8.534 64.773-8.697 88.844-.252 37.017 12.605 85.76 26.969 96.62 2.595 1.961-2.023 6.3-4.317 6.14-15.725-1.092-26.01-31.437-28.75-45-4.683-23.18-10.829-36.585-10.486-70.213.33-32.286 4.11-56.416 8.053-84.303 6.104-43.156 27.425-47.538 33.535-49.721 19.446-6.95 31.064-3.374 37.658-2.192 3.859.692.982-10.08 2.066-17.77 2.482-17.599 12.687-24.796 27.74-25.942.482-.037.965-.058 1.448-.064zm-303.57 9.938l-11 3-1 19 11 2zm48.359.648c1.385.098 3.1 1.54 5.156 5.307 2.797 5.122 4.436 12.399 2.907 15.7-.4.864-5.803 4.42-8.866-1.058-2.12-3.79-3.795-5.835-3.728-11.463.029-2.405 1.485-8.701 4.531-8.486zm56.891 2.662l.75 26.688s7.628-1.99 11-1.625c11.674 1.267 18.155 10.69 25.375 10.438 6.087-.215 7.263-5.33 6.625-9.312-1.782-11.124-5.587-15.31-28.25-17.938-6.405-.742-9.365-3.91-15.5-8.25zm-74.27 2.28c.105-.013.204-.012.3 0 1.289.149 1.89 2.356 3.009 5.539 1.04 2.956 2.283 3.978 2.078 9.277-.11 2.844-1.351 12.42-7.203 4.816-1.923-2.5-3.965-5.696-3.403-10.738.263-2.36.617-5.025 2.201-6.709 1.337-1.421 2.285-2.099 3.018-2.185zM44.368 370.67c-3.586.165-5.856 9.938-3.703 25.057l13-6c-2.922-13.501-6.508-19.185-9.297-19.057zm351.48 4.058s4.38 3.103 4.625 5.375c.197 1.82-1.071 4.743-2.875 4.438-3.283-.557-1.75-9.813-1.75-9.813zm-226.2 3.223c-7.71.1-11.078 4.195-10.734 14.91.438 13.645 1.255 14.752 8.617 14.785 8.81.037 11.566-2.949 17.566-5.06 10.136-3.566 6.353-4.505 9.573-4.86h9l-.002-10s-9.013 1.762-13.057.576c-4.921-1.442-11.621-10.472-20.963-10.352zm-115.21 15.75l-13.129 5.564c-.661 6.458-.51 15.046.232 22.695 5.605-.379 16.43 1.757 19.846 3.914L54.438 393.7zm54.17 2.473c2.655-.087 4.557.657 5.12 2.181.46 1.25-1.87 2.303-1.69 3.623.182 1.336 2.82 1.533 3.851 7.074.718 3.858 1.49 9.81-.086 11.777-2.356 2.942-9.266-3.169-10.707-5.242-2.036-2.927-4.044-7.41-3.775-10.51.342-3.935 2.18-8.372 6.105-8.816.408-.046.803-.076 1.182-.088zm-13.576 2.029h.002c3.747-.298 3.414 4.638 3.58 9.957.162 5.19 3.267 10.6 1.395 13.34-1.35 1.975-6.497 2.404-8.846-3.834-2.207-5.862-4.371-7.236-5-11.938-.21-1.574 2.99-5.546 7-7.063.715-.27 1.333-.42 1.869-.462zm102.89 4.758a4.313 4.313 0 00-.887.058c-6.46 1.1-14.044 8.472-27.463 10.227-4.18.547-9.904-.513-9.904-.513l-.814 14.875c3.865-.875 5.76-1.784 11.16-1.815 7.097-.04 16.173 8.996 27.2 8.858 4.05-.032 7.93-.89 8.368-14.533.321-10.045-3.278-16.996-7.66-17.156zm-156.26 22.896c.325 6.67 2.18 12.213 5.215 16.883 4.372-.422 14.489-9.11 14.762-11.535-4.13-4.19-12.815-5.5-19.977-5.348zm374.75 1.75c-.435 3.892-2.052 9.198-2.187 14-.133 4.767.617 10.474 10.438 14.25.21-6.076 5.525-10.378 5.375-17.25-.11-5.042-5.311-6.86-13.625-11zm-246.36 3.482c-10.713.345-14.06 10.593-12.078 15.36 6.022 14.476 26.737 6.356 32.086 10.163 5.424 3.86 9.133 5.51 13.346 8.928l2.254-26.814-.002.002c-21.544.613-24.737-6.8-33.363-7.57-.78-.07-1.528-.092-2.242-.069zm-105.51 5.576s-15.886 6.8-14.812 18.188c.978 10.366 16.156 10.094 29.875 8.813l-15.061-27h-.002zm243.05 7.807c-.935.204-1.814 4.467-2.984 16.824-.84 8.886 2.989 41.011 8.287 48.641 3.444 4.962 6.897 7.858 12.66 7.84 2.363 3.867 7.828 5.771 11.46 7.011 12.298 4.202 55.956 15.461 80.907-3.566 1.215-.926.813-18.289-1.502-18.029-7.124.801-20.102 6.437-30.58 6.291-30.815-.429-59.874-19.66-74.34-55.96-1.716-4.305-2.849-9.283-3.908-9.052zm-151.12 11.014c-2.239-.049-5.428.77-5.654 6.873-.188 5.081 1.445 8.767 1.994 12.307l2.838-2.025c2.295 9.077 11.307 34.478 28.857 29.39 6.787-1.967 14.353-14.386 13.797-26.784-.6-13.361-7.934-13.868-17.373-13.76-13.793.159-20.22-5.908-24.46-6zm-104.31 11.74c.606 11.933 4.192 26.302 12.189 35.188 7.39-13.062 11.548-9.696 17.438-19.688 7.829-13.284-12.517-14.464-29.625-15.5zm36.521 3.53l-4.02 18.972s-10.548.744-10.933 9.551c-.231 5.273 4.947 9.92 12.037 9.926 13.275.009 19.085-23.617 17.387-29.56-1.27-4.438-5.175-5.85-14.471-8.89zm50.98 1.97l.283 8.103c3.547 16.404 12.883 21.332 7.692 48.615 27.68-.997 43.487-10.218 46.934-18.738l1.767 1.061c1.25-3.707 4.885-14.839 5.746-24.307-7.188 6.836-11.013 20.781-21.479 19.977-15.184-1.167-25.742-26-32.262-34.297zm-9.78 5.271c-2.21 4.992-7.783 19.077-9.573 26.631-1.45 6.12 4.296 30.451 13.629 28.264 10.267-2.406 12.029-11.579 11.314-19.092-.523-5.492-11.081-33.593-15.37-35.803zm-13.706.899c-1.385-.014-2.794.262-3.961 1.09-8.151 5.78-6.575 19.63-14.631 29.953-6.236 7.99-23.47 1.795-23.47 1.795 4.486 14.378 22.706 24.68 46.544 21.99 0 0-5.027-21.92-5.475-28.02-.392-5.348 6.969-25.352 6.969-25.352-.003-.002-2.932-1.428-5.977-1.457zm165.53 61.02c.74.124 1.637.969 1.699 1.423.054.399-1.743 1.646-2.395 1.297-.957-.512-.757-1.83.045-2.56.174-.163.404-.2.65-.16zm5.228 27.185c4.856 2.15 6.936 5.53 7.16 10.254-4.107-1.012-6.488-4.589-7.16-10.254zm7.598 69.504h.002c1.545-.114 1.304 4.125 6.986 4.125 0 2.56 1.272 7.675-2.873 7.424-3.629-.22-7.438-4.106-7.324-7.342.098-2.787.744-4.018 3.209-4.207zm15.58 17.139c.716.05 1.44.317 2.02 1.018.713.863.832 2.031.06 2.843-1.223 1.288-3.163 1.004-4.432-.25-.645-.637-3.065-2.21-.209-3.074.46-.14 1.369-.62 2.561-.537zm-57.514.986c2.067 0 2.062 2.46 2.062 5l-3.937-.015c0-2.724-.083-4.985 1.875-4.985zm65.125 11.312c4.938.673 6.34 2.182 7.75 6.563-5.48-.18-7.355-1.602-7.75-6.563zm-63.861 5.455h.002c.668-.009 1.305.185 1.892.452 2.298 1.4 2.62 3.36 1.875 5.843-2.409-.554-4.514-3.468-5-6.03a3.217 3.217 0 011.231-.265z" fill="#fff"/>
</svg>
