<svg width="2385" height="1260" xmlns="http://www.w3.org/2000/svg">
    <g fill="#67012d">
        <rect x="43" y="33" width="544" height="886"/>
        <rect x="652.33" y="33" width="520" height="886"/>
        <rect x="1237.7" y="33" width="520" height="886"/>
        <rect x="1823" y="33" width="520" height="886"/>
        <rect x="43" y="966" width="2300" height="249"/>
    </g>
    <g fill="#fff">
        <path d="m544.91 89.27c-5.273 1.603-10.123 3.506-15.379 6.719-7.14 4.363-16.63 9.712-36.062 9.898-24.065 0.23-26.12-15.283-39.156-15.203-8.82 0.054-12.984 8.557-25.301 9.281-0.062 3.341-5.125 6.354-25.965 7.073-12.185 0.42-18.288-2.742-20.684-4.862-13.736-0.508-22.292-11.01-38.537-11.139-14.964-0.117-36.616 13.14-49.521 20.37-4.638 2.597-14.461 4.898-16.77 11.628-11.956 1.078-22.559 9.352-26.781 14.584-7.523-5.24-15.433-16.785-25.9-17.025-7.514-0.172-13.623 4.694-22.162 5.07-10.46 0.464-23.393-3.005-33.451 2.266-4.773 2.502-5.632 5.626-7.186 7.2-1.745 1.765-4.091-0.722-7.882 5.462-9.966 24.755-6.784 63.915-5.32 88.533 1.521 22.244 7.27 68.017 19.93 99.693l31.993-8.548c-7.222-22.228-21.704-67.443-23.188-102.38-0.61-14.396 0.035-49.19 1.328-52.605 2.25-5.931 3.97-8.608 6.793-14.293 3.33-6.704 8.911-6.053 13.98-10.113 1.612-1.292 8.618-3.195 11.264-3.262 8.05-0.205 21.535 3.47 18.855 16.977-30.167 14.446-19.146 17.078-42.875 27.477 4.593 60.446 15.147 103.97 24.926 137.71 12.074 0.21 22.155-0.496 36.604 1.873 32.897 3.635 42.691 37.684 48.221 61.188 8.617 36.627 11.798 59.59 12.666 68.717 3.531 37.147 1.036 83.184-4.056 139.26-3.156 34.748-49.077 41.08-97.936 46.465 7.107 38.546 25.448 72.888 39.775 96.203 9.398 15.294 23.899 24.909 35.25 35.734 19.21 18.322 61.108 38.115 80.172 39.287 3.15 0.194-9.635-17.684-7.227-25.291 1.678-5.3 14.547 23.068 22.883 37.914 3.258 4.493 9.23 8.55 16.971 15.293 19.033 12.549 45.611 18.054 64.088 11.24 23.633-8.715 21.831-23.635 35.764-45.535 7.454-11.716 10.644-28.54 13.09-39.5 3.956-1.208 12.34-18.887 11.25-37.25-17.182 2.054-38.325 6.986-47.113 7.594-30.846 2.134-64.872-22.805-72.637-34.844-1.599-2.48-1.198-6.117-2.984-8.44-6.744-8.77-7.58-11.53-3.826-14.875 3.768 3.862 10.96 18.661 13.85 18.461 3.137-0.218 18.205 17.676 36.38 24.5 14.72 5.525 54.414 0.243 64.255-2.492 14.585-4.054 41.804-14.608 35.699-57.787-1.59-11.249-23.052-33.312-27.375-32.479-5.89 1.135-16.425 5.325-21.641 7.732-1.947 0.9 2.663 9.028 3.29 10.19 5.868 10.87 2.276 38.636-19.974 44.37-11.58 2.985-33.814-4.515-41.041-9.226-10.377-6.767-20.69-14.624-25.074-19.061 0.714-10.796-16-23.144-19.59-36.08-3.258-11.734-9.912-44.037-11.938-65.385-1.248-13.15 3.677-32.26 7.185-45.57 3.705-14.056 13.7-17.124 16.08-10.076 7.505 22.213 19.548 55.008 39.043 68.889 13.676 9.737 34.056 11.277 42.785 11.826 10.597-0.09 16.583-0.5 26.865-5.215 3.644-1.67 7.95-6.026 8.815-17.205 1.045-13.509-23.931-7.139-26.957-29.344-1.416-10.388 2.236-16.716 4.064-23.336-6.245-8.273-18.313-11.78-29.078-2.74-2.554-8.445 4.517-15.84 13.787-16.705 27.117-2.534 24.42 26.675 55.508 28.107 29.38 1.353 32.654-24.593 29.547-53.805-3.565-33.521-77.035-39.156-79.074-138.19-0.4-19.425 7.24-26.102 28.58-33.486-1.47 5.525 0.847 2.488 2.598 1.55 5.926-3.171 17.175 22.017 17.178 8.38 3e-3 -13.097-25.911-98.738-50.133-97.123-5.89 0.393-19.95 6.398-30.076 8.908-14.521 3.599-7.21 5.325-0.188 9.408 4.902 2.85 9.4 7.974 9.887 12.223-25.072-0.903-48.51 10.2-58.16 13.521-11.824 4.07-34.287 10.703-67.723 11.869-7.474 9.027-13.305 21.255-23.08 27.639-12 7.836-29.192 10.602-45.027 18.055-8.05 3.789-28.271 20.089-23.107 11.305 20.468-34.821 36.74-20.649 55.084-38.371 4.562-0.94 16.16-7.713 14.76-20.596-0.875-8.058-0.119-13.69 10.52-12.373 26.688 3.304 35.805-2.165 56.346-8.27 15.885-4.72 34.085-9.804 37.61-14.535-7.663-6.24-20.617-11.478-25.456-18.387-1.644-2.346 4.42-2.03 4.42-2.03 0.138-0.984 0.422-2.263 0.795-3.716 7.387 2.204 60.698 0.67 79.51-11.945 16.312-10.938 34.394-21.113 37.693-27.209 6.465-0.437 18.144-10.725 19.887-29.609 10.96-4.978 6.221-21.91 4.773-40.129h-4e-3zm-411.84 148.16c-1.193-0.034-3.377 2.45-7.316 9.408-11.973 21.15-31.842 82.936-33.375 147.34-1.151 48.31 11.764 48.971 14.656 77.371 0 0 6.2 5.777 8.574 14.053 4.38 15.283 1.403-17.71 2.92-29.85 5.996-47.97 1.893-98.086 27.309-111.39 6.115-3.202 6.161-0.578 6.976-6.158 0.35-2.386 1.693-4.631-0.13-10.111-6.02-18.091-17.389-66.428-18.265-86.926v-8e-3c-0.092-2.153-0.421-3.702-1.35-3.728zm247.4 58.467c14.21 0.134 27.775 12.143 33.951 20.309 4.81 6.359 0.602 4.918 3.916 8.178 2.59 2.547 2.235 5.965 1.898 8.133-1.304 8.397 0.703 4.124 3.801 5.037 2.748 0.81 6.786 3.495 7.07 6.85 0.258 3.02-2.468 7.902-5.476 7.513-4.028-0.52-6.788-6.154-6.584-10.682 0.13-2.878-3.136 0.588-6.192-4.211-8.05-12.648-21.262-29.197-27.93-28.107-8.514 1.392-15.647 13.097-17.146 20.771-1.12 5.734-1.114 20.135 0.266 26.428 4.408 0.434 4.317 5.66 3.979 8.838-0.374 3.503-1.05 7.907-4.508 8.574-9.532 1.838-13.397-30.462-12.906-41.277 0.664-14.637 3.75-35.384 24.484-36.328 0.46-0.02 0.918-0.03 1.377-0.025zm133.78 7.6c-10.883 0.105-15.898 18.674-15.375 29.545 1.472 30.583 17.448 45.295 31.445 63.656 3.458 4.536 6.119 8.696 6.555 0.423 0.303-5.76-2.16-13.904-2.272-21.33-0.168-11.335 2.069-14.46 3.059-31.7 0.97-16.92-10.44-40.72-23.412-40.595zm-296.25 29.5c-2.447 11.005-8.292 20.515-9.152 29.766-1.134 12.187 9.452 12.805 13.422 12.719 6.013-0.13 13.17-3.06 12.525-7.836-1.355-10.028 0.205-34.648 0.205-34.648h-17zm25.154 0.138c-3.769 5.16-4.938 11.112-4.713 16.88 0.332 8.507 1.51 19.52 0.553 26.061-3.476-0.156-5.5 3.838-6.664 5.57h-2e-3c0.87 1.067 2.247 1.93 3.447 2.335 9.762-18.088 33.542-20.193 33.172-35.561-0.323-13.404-25.793-15.285-25.793-15.285zm-31.436 2.102c-4.98 0.707-19.452 2.875-22.346 6.836-4.642 6.352 5.362 15.88 4.844 26.752-0.23 4.815-1.766 11.235-6.586 11.338-5.686 0.124-11.244-10.515-9.156-13.881 2.735 1.867 5.102 8.772 8.892 7.31 5.403-2.084-5.998-29.23-5.998-29.23-6.107 1.26-25.739 7.906-25.252 18.414 0.603 13.017 15.578 6.689 13.902 26.32l37.748-9.726s-2.953-8.998-3.025-13.416c-0.17-10.38 6.246-15.864 6.976-30.717zm309.24 3.994c3.979 7.373 8.572 12.94 8.75 25.014 0.078 5.205-3.283 13.012-8.484 12.816-7.501-0.282-11.172-11.64-10.871-18.826 0.374-8.917 3.39-18.288 10.605-19.004zm-116.91 6.121c2.419 1.397 7.26 10.71 8.602 15.637 0 0 1.402 25.438-8.174 26.328-7.38 0.686-12.425-13.56-12.572-21.922-0.226-12.824 9.44-20.314 12.145-20.043zm-128.05 8.645-2.002 2e-3c-8.624 11.72-31.604 18.027-31.561 31.125 0.014 4.108 5.082 7.32 9.187 7.5 9.307 0.408 19.25-7.974 31.188-11.69-0.657-10.87-4.764-22-6.812-26.937zm153.45 3.603v2e-3c3.324 0.19 3.042 5.364 2.611 6.942-0.39 1.427-1.823 0.16-2.771-0.973-1.07-1.28-1.503-6.065 0.16-5.97zm-279.28 4.418c-0.82 0.044-1.766 1.204-2.346 1.735-2.773 2.543-5.87 11.356-7.857 17.943v2e-3c4.329 1.623 8.224 6.279 13.23 10.439 1.125 0.935 7.282 3.812 10.775-1.907 0.765-1.253 2.052-5.922 0.973-11.56-0.467-2.44-3.68-1.832-4.897-2.428-3.11-1.524-7.962-7.44-8.434-11.482-0.248-2.136-0.808-2.777-1.445-2.743zm221.59 16.396c2.574-0.184 4.093 5.717 3.914 7.46-0.767 7.478-4.953 3.145-6.062 0.75-1.616-3.489-1.223-7.969 2.148-8.21zm-86.764 9.703c-14.811-0.195-18.607 11.47-41.004 10.03h-2e-3c0.338 8.57 2.167 16.006 5.272 19.604 12.367-10.956 24.635-3.43 37.734-6.75l-2-22.885zm-142.18 0.018s-5.962 1.253-5.818 9.926c0.24 14.426 11.88 17.855 11.88 17.855 0.954-7.24 2.929-12.983 7.089-15.943-4.272-3.691-9.913-7.344-13.15-11.838zm72.482 3.07v2e-3c-13.058 0.413-38.16 4.23-49.816 13.215-12.702 9.792-10.219 30.42-9.758 43.62 0.527 15.091 0.78 44.448 8.29 64.02 6.34 16.524 24.151 43.3 49.517 42.75 21.948-0.476 25.781-14.112 28.94-48.22 1.684-18.214-1.93-47.802-5.628-68.339-4.71-26.163-5.507-47.557-21.545-47.049zm-16.885 12.53c10.082 0.223 17.314 6.967 18.932 14.331 4.042 18.395 4.621 41.166 8.115 63.648 3.031 19.508 7.06 34.306 5.746 43.047-1.51 10.055-7.42 21.093-26.643 21.715-10.568 0.342-10.207-9.166-10.207-9.166s5.792 1.626 9.327 1.287c18.225-1.747 19.06-10.923 18.988-16.787-0.14-11.262-13.034-54.745-14.621-73.33-1.124-13.16-3.34-36.425-13.445-36.32-12.027 0.124-17.236 14.76-27.566 15.99-2.156 0.257-6.063-4.566-2.254-8.127 8.235-7.7 18.186-15.384 31.574-16.246 0.68373-0.0439 1.369-0.0582 2.054-0.043zm-64.246 10.54-0.113 17.508c8.87-1.099 11.57-2.031 11.63-3.205 0.414-7.972-6.887-14.598-11.517-14.303zm127.38 2.09c-0.45891 5e-3 -0.91751 0.0256-1.375 0.062-4.956 0.401-9.288 5.572-8.625 10.5 1.972 14.671 27.237 11.508 40.088 19.188-0.581-13.02 2.181-30.145-9.338-27.875-6.236 1.229-13.826-1.957-20.75-1.875zm187 7.693c14.997-0.189 31.023 14.067 35.178 28.44 0.406 1.404-2.544 8.712-5.033 2.708-4.098-9.88-15.801-23.169-28.631-21.592-14.283 1.756-17.941 11.93-17.758 24.406-0.052 27.43 21.615 67.516 34.797 67.352 5.473-0.336 9.338-9.066 10.25-12.375 1.523-5.53 6.637 3.224 6.375 6.625-0.76 9.854-4.678 9.386-6.696 10.713-2.141 1.407 0.527 7.942-13.18 8.287-26.19 0.66-38.06-41.27-40.956-51.277-1.42-4.902 1.302-7.764-5.481-7.347-14.195 0.873-14.791 5.275-16.721 4.77-22.748-5.966-34.931 27.593-37.363 42.892-4.965 31.235-8.534 64.773-8.697 88.844-0.252 37.017 12.605 85.76 26.969 96.62 2.595 1.961-2.023 6.3-4.317 6.14-15.725-1.092-26.01-31.437-28.75-45-4.683-23.18-10.829-36.585-10.486-70.213 0.33-32.286 4.11-56.416 8.053-84.303 6.104-43.156 27.425-47.538 33.535-49.721 19.446-6.95 31.064-3.374 37.658-2.192 3.859 0.692 0.982-10.08 2.066-17.77 2.482-17.599 12.687-24.796 27.74-25.942 0.48187-0.0366 0.96478-0.058 1.448-0.064zm-303.57 9.938-11 3-1 19 11 2zm48.359 0.648c1.385 0.098 3.1 1.54 5.156 5.307 2.797 5.122 4.436 12.399 2.907 15.7-0.4 0.864-5.803 4.42-8.866-1.058-2.12-3.79-3.795-5.835-3.728-11.463 0.029-2.405 1.485-8.701 4.531-8.486zm56.891 2.662 0.75 26.688s7.628-1.99 11-1.625c11.674 1.267 18.155 10.69 25.375 10.438 6.087-0.215 7.263-5.33 6.625-9.312-1.782-11.124-5.587-15.31-28.25-17.938-6.405-0.742-9.365-3.91-15.5-8.25zm-74.27 2.28c0.105-0.013 0.204-0.012 0.3 0 1.289 0.149 1.89 2.356 3.009 5.539 1.04 2.956 2.283 3.978 2.078 9.277-0.11 2.844-1.351 12.42-7.203 4.816-1.923-2.5-3.965-5.696-3.403-10.738 0.263-2.36 0.617-5.025 2.201-6.709 1.337-1.421 2.285-2.099 3.018-2.185zm-39.277 20.354c-3.586 0.165-5.856 9.938-3.703 25.057l13-6c-2.922-13.501-6.508-19.185-9.297-19.057zm351.48 4.058s4.38 3.103 4.625 5.375c0.197 1.82-1.071 4.743-2.875 4.438-3.283-0.557-1.75-9.813-1.75-9.813zm-226.2 3.223c-7.71 0.1-11.078 4.195-10.734 14.91 0.438 13.645 1.255 14.752 8.617 14.785 8.81 0.037 11.566-2.949 17.566-5.06 10.136-3.566 6.353-4.505 9.573-4.86h9l-2e-3 -10s-9.013 1.762-13.057 0.576c-4.921-1.442-11.621-10.472-20.963-10.352zm-115.21 15.75-13.129 5.564c-0.661 6.458-0.51 15.046 0.232 22.695 5.605-0.379 16.43 1.757 19.846 3.914l-6.949-32.174zm54.17 2.473c2.655-0.087 4.557 0.657 5.12 2.181 0.46 1.25-1.87 2.303-1.69 3.623 0.182 1.336 2.82 1.533 3.851 7.074 0.718 3.858 1.49 9.81-0.086 11.777-2.356 2.942-9.266-3.169-10.707-5.242-2.036-2.927-4.044-7.41-3.775-10.51 0.342-3.935 2.18-8.372 6.105-8.816 0.408-0.046 0.803-0.076 1.182-0.088zm-13.576 2.029h2e-3c3.747-0.298 3.414 4.638 3.58 9.957 0.162 5.19 3.267 10.6 1.395 13.34-1.35 1.975-6.497 2.404-8.846-3.834-2.207-5.862-4.371-7.236-5-11.938-0.21-1.574 2.99-5.546 7-7.063 0.715-0.27 1.333-0.42 1.869-0.462zm102.89 4.758c-0.29687-0.0111-0.5941 8e-3 -0.887 0.058-6.46 1.1-14.044 8.472-27.463 10.227-4.18 0.547-9.904-0.513-9.904-0.513l-0.814 14.875c3.865-0.875 5.76-1.784 11.16-1.815 7.097-0.04 16.173 8.996 27.2 8.858 4.05-0.032 7.93-0.89 8.368-14.533 0.321-10.045-3.278-16.996-7.66-17.156zm-156.26 22.896c0.325 6.67 2.18 12.213 5.215 16.883 4.372-0.422 14.489-9.11 14.762-11.535-4.13-4.19-12.815-5.5-19.977-5.348zm374.75 1.75c-0.435 3.892-2.052 9.198-2.187 14-0.133 4.767 0.617 10.474 10.438 14.25 0.21-6.076 5.525-10.378 5.375-17.25-0.11-5.042-5.311-6.86-13.625-11zm-246.36 3.482c-10.713 0.345-14.06 10.593-12.078 15.36 6.022 14.476 26.737 6.356 32.086 10.163 5.424 3.86 9.133 5.51 13.346 8.928l2.254-26.814-2e-3 2e-3c-21.544 0.613-24.737-6.8-33.363-7.57-0.78-0.07-1.528-0.092-2.242-0.069zm-105.51 5.576s-15.886 6.8-14.812 18.188c0.978 10.366 16.156 10.094 29.875 8.813l-15.061-27h-2e-3zm243.05 7.807c-0.935 0.204-1.814 4.467-2.984 16.824-0.84 8.886 2.989 41.011 8.287 48.641 3.444 4.962 6.897 7.858 12.66 7.84 2.363 3.867 7.828 5.771 11.46 7.011 12.298 4.202 55.956 15.461 80.907-3.566 1.215-0.926 0.813-18.289-1.502-18.029-7.124 0.801-20.102 6.437-30.58 6.291-30.815-0.429-59.874-19.66-74.34-55.96-1.716-4.305-2.849-9.283-3.908-9.052zm-151.12 11.014c-2.239-0.049-5.428 0.77-5.654 6.873-0.188 5.081 1.445 8.767 1.994 12.307l2.838-2.025c2.295 9.077 11.307 34.478 28.857 29.39 6.787-1.967 14.353-14.386 13.797-26.784-0.6-13.361-7.934-13.868-17.373-13.76-13.793 0.159-20.22-5.908-24.46-6zm-104.31 11.74c0.606 11.933 4.192 26.302 12.189 35.188 7.39-13.062 11.548-9.696 17.438-19.688 7.829-13.284-12.517-14.464-29.625-15.5zm36.521 3.53-4.02 18.972s-10.548 0.744-10.933 9.551c-0.231 5.273 4.947 9.92 12.037 9.926 13.275 9e-3 19.085-23.617 17.387-29.56-1.27-4.438-5.175-5.85-14.471-8.89zm50.98 1.97 0.283 8.103c3.547 16.404 12.883 21.332 7.692 48.615 27.68-0.997 43.487-10.218 46.934-18.738l1.767 1.061c1.25-3.707 4.885-14.839 5.746-24.307-7.188 6.836-11.013 20.781-21.479 19.977-15.184-1.167-25.742-26-32.262-34.297zm-9.78 5.271c-2.21 4.992-7.783 19.077-9.573 26.631-1.45 6.12 4.296 30.451 13.629 28.264 10.267-2.406 12.029-11.579 11.314-19.092-0.523-5.492-11.081-33.593-15.37-35.803zm-13.706 0.899c-1.385-0.014-2.794 0.262-3.961 1.09-8.151 5.78-6.575 19.63-14.631 29.953-6.236 7.99-23.47 1.795-23.47 1.795 4.486 14.378 22.706 24.68 46.544 21.99 0 0-5.027-21.92-5.475-28.02-0.392-5.348 6.969-25.352 6.969-25.352-3e-3 -2e-3 -2.932-1.428-5.977-1.457zm165.53 61.02c0.74 0.124 1.637 0.969 1.699 1.423 0.054 0.399-1.743 1.646-2.395 1.297-0.957-0.512-0.757-1.83 0.045-2.56 0.174-0.163 0.404-0.2 0.65-0.16zm5.228 27.185c4.856 2.15 6.936 5.53 7.16 10.254-4.107-1.012-6.488-4.589-7.16-10.254zm7.598 69.504h2e-3c1.545-0.114 1.304 4.125 6.986 4.125 0 2.56 1.272 7.675-2.873 7.424-3.629-0.22-7.438-4.106-7.324-7.342 0.098-2.787 0.744-4.018 3.209-4.207zm15.58 17.139c0.716 0.05 1.44 0.317 2.02 1.018 0.713 0.863 0.832 2.031 0.06 2.843-1.223 1.288-3.163 1.004-4.432-0.25-0.645-0.637-3.065-2.21-0.209-3.074 0.46-0.14 1.369-0.62 2.561-0.537zm-57.514 0.986c2.067 0 2.062 2.46 2.062 5l-3.937-0.015c0-2.724-0.083-4.985 1.875-4.985zm65.125 11.312c4.938 0.673 6.34 2.182 7.75 6.563-5.48-0.18-7.355-1.602-7.75-6.563zm-63.861 5.455h2e-3c0.668-9e-3 1.305 0.185 1.892 0.452 2.298 1.4 2.62 3.36 1.875 5.843-2.409-0.554-4.514-3.468-5-6.03 0.38887-0.16856 0.80722-0.25862 1.231-0.265z"/>
        <path d="m1119.7 747.44c0 3.2187-0.8777 6.1447-2.633 8.778-1.4633 2.3407-4.5357 4.3887-9.217 6.144-4.3893 1.4633-10.534 2.634-18.434 3.512-7.9 0.87733-17.848 1.316-29.845 1.316-19.019 0-32.771-0.73133-41.256-2.194-8.1933-1.4633-14.192-3.658-17.995-6.584-3.5113-2.9253-6.2913-6.4363-8.34-10.533l-171.61-269.48v269.48c0 3.2187-0.87767 5.9987-2.633 8.34-1.7553 2.34-4.8273 4.388-9.216 6.144-4.3893 1.4627-10.241 2.633-17.556 3.511s-16.678 1.317-28.09 1.317c-11.118 0-20.481-0.439-28.088-1.317-7.3147-0.878-13.167-2.0483-17.556-3.511-4.3893-1.7553-7.608-3.8037-9.656-6.145-1.756-2.34-2.634-5.1197-2.634-8.339v-535.01c0-3.218 0.878-5.9977 2.634-8.339 2.048-2.34 5.2667-4.2417 9.656-5.705 4.3887-1.4633 10.241-2.6337 17.556-3.511 7.6067-0.878 16.97-1.317 28.089-1.317 11.411 0 20.774 0.439 28.089 1.317s13.167 2.048 17.556 3.51 7.4613 3.364 9.216 5.706c1.756 2.3413 2.634 5.1213 2.634 8.34v241.83l166.34-241.39c2.048-3.804 4.535-6.8763 7.461-9.217 2.926-2.6333 6.7297-4.6817 11.411-6.145 4.6813-1.4627 10.68-2.4867 17.995-3.072 7.3147-0.58533 16.678-0.878 28.089-0.878 11.704 0 21.36 0.439 28.967 1.317s13.606 2.1947 17.995 3.95c4.6813 1.4627 7.9 3.3643 9.656 5.705 1.7553 2.3413 2.633 4.9747 2.633 7.9 0 4.9747-1.3167 10.095-3.95 15.362s-7.6073 13.606-14.922 25.017l-155.81 204.09 169.85 256.75c6.4373 11.997 10.241 20.043 11.411 24.139 1.4633 3.8033 2.195 6.8753 2.195 9.216z"/>
        <path d="m1707.7 676.12c0 7.3147-0.2927 13.605-0.878 18.872-0.2927 4.974-0.8777 9.363-1.755 13.167-0.878 3.5113-2.0483 6.5837-3.511 9.217-1.4633 2.6333-3.8043 5.7057-7.023 9.217-3.2187 3.218-9.5093 7.4607-18.872 12.728-9.0707 5.2667-20.336 10.387-33.795 15.36-13.167 4.682-28.382 8.632-45.645 11.85-16.971 3.2187-35.404 4.828-55.3 4.828-38.916 0-74.026-5.9983-105.33-17.995-31.309-11.997-57.935-29.845-79.88-53.545-21.945-23.993-38.769-53.837-50.473-89.534s-17.556-77.247-17.556-124.65c0-48.279 6.437-91.145 19.311-128.6s30.869-68.909 53.984-94.362c23.115-25.456 50.766-44.767 82.951-57.934 32.478-13.167 68.175-19.75 107.09-19.75 15.8 0 31.015 1.3167 45.645 3.95s28.089 6.1443 40.378 10.533c12.581 4.0967 23.846 8.9247 33.795 14.484 9.948 5.56 16.824 10.388 20.628 14.484 4.0967 3.804 6.8767 7.0227 8.34 9.656 1.4627 2.6333 2.6327 5.9983 3.51 10.095s1.4627 8.9247 1.756 14.484c0.5853 5.56 0.878 12.436 0.878 20.628 0 8.778-0.2927 16.239-0.878 22.384s-1.6093 11.119-3.072 14.922c-1.4633 3.804-3.219 6.584-5.267 8.34-2.048 1.7553-4.3887 2.633-7.022 2.633-4.3893 0-9.9487-2.4873-16.678-7.462-6.73-5.2667-15.508-10.972-26.334-17.117-10.533-6.4367-23.261-12.142-38.184-17.117-14.63-5.2667-32.186-7.9-52.667-7.9-22.53 0-42.719 4.6817-60.567 14.045-17.556 9.0707-32.625 22.237-45.206 39.5-12.289 16.971-21.653 37.599-28.09 61.884-6.4367 24.285-9.655 51.643-9.655 82.073 0 33.356 3.365 62.323 10.095 86.901 7.022 24.285 16.824 44.328 29.406 60.128 12.874 15.8 28.235 27.65 46.084 35.55 18.141 7.6073 38.476 11.411 61.006 11.411 20.482 0 38.184-2.3407 53.106-7.022 14.923-4.974 27.651-10.387 38.184-16.24 10.826-5.8513 19.604-11.118 26.334-15.8 7.022-4.6807 12.435-7.021 16.239-7.021 2.926 0 5.2667 0.585 7.022 1.755 1.756 1.1707 3.2193 3.5113 4.39 7.022 1.17 3.5113 2.0477 8.4853 2.633 14.922 0.5847 6.1447 0.877 14.484 0.877 25.017z"/>
        <path d="m2293.7 752c0 3.2187-0.5853 5.9983-1.756 8.339-1.17 2.048-3.9497 3.8037-8.339 5.267s-10.826 2.4873-19.31 3.072c-8.486 0.58533-20.044 0.878-34.674 0.878-12.289 0-22.091-0.29267-29.406-0.878s-13.167-1.6093-17.556-3.072c-4.096-1.756-7.0217-3.8043-8.777-6.145-1.756-2.6333-3.2193-5.7057-4.39-9.217l-50.911-126.84c-6.1447-14.337-12.143-27.065-17.995-38.184s-12.435-20.335-19.75-27.65c-7.0227-7.6067-15.215-13.312-24.578-17.117s-20.189-5.7063-32.478-5.705h-35.99v216.37c0 2.926-1.024 5.5593-3.072 7.9-1.7553 2.3407-4.8273 4.2427-9.216 5.706s-10.241 2.6333-17.556 3.51c-7.3147 0.878-16.678 1.317-28.09 1.317-11.118 0-20.481-0.43867-28.088-1.316-7.3147-0.878-13.167-2.0483-17.556-3.511s-7.4617-3.3647-9.217-5.706c-1.756-2.3407-2.634-4.974-2.634-7.9v-515.7c0-12.874 3.2187-22.091 9.656-27.65 6.73-5.852 14.923-8.778 24.578-8.778h147.03c14.923 0 27.212 0.29267 36.867 0.878s18.433 1.3167 26.334 2.194c22.823 3.2187 43.304 8.778 61.445 16.678 18.433 7.9 33.941 18.287 46.523 31.161 12.874 12.581 22.676 27.65 29.406 45.206 6.73 17.263 10.095 37.16 10.095 59.69 0 19.019-2.487 36.428-7.461 52.228-4.6813 15.507-11.704 29.406-21.067 41.695s-20.921 22.969-34.673 32.04c-13.752 9.07-29.406 16.385-46.962 21.944 8.4853 4.0967 16.385 9.0707 23.7 14.922 7.6067 5.852 14.629 13.021 21.067 21.506 6.7293 8.1933 13.02 17.703 18.872 28.528 5.852 10.533 11.558 22.53 17.117 35.99l47.839 111.92c4.3887 11.118 7.3147 19.31 8.778 24.577 1.4627 4.974 2.194 8.924 2.194 11.85zm-148.79-385.35c0-18.726-4.2427-34.526-12.728-47.401-8.4853-12.874-22.384-21.944-41.695-27.211-5.852-1.4633-12.582-2.6337-20.189-3.511-7.3147-0.878-17.555-1.317-30.722-1.317h-51.79v161.07h58.812c16.385 0 30.723-1.902 43.012-5.706 12.289-4.096 22.53-9.6553 30.723-16.678 8.1927-7.3147 14.337-15.946 18.434-25.895 4.096-9.948 6.144-21.067 6.144-33.356z"/>
        <path d="m673.95 1091.6c0 2.9587-0.28067 5.0247-0.842 6.198s-1.454 1.76-2.678 1.76h-31.832c-1.2753 0-2.1937-0.5867-2.755-1.76-0.56133-1.224-0.842-3.29-0.842-6.198 0-2.8567 0.28067-4.8717 0.842-6.045s1.4797-1.76 2.755-1.76h31.832c0.612 0 1.122 0.1273 1.53 0.382 0.45933 0.2553 0.842 0.689 1.148 1.301s0.51 1.4283 0.612 2.449c0.15333 1.02 0.23 2.2443 0.23 3.673zm166.28 35.74c0 0.51-0.15333 0.969-0.46 1.377-0.25467 0.4087-0.76467 0.7403-1.53 0.995-0.71333 0.2553-1.6823 0.4593-2.907 0.612s-2.7807 0.2293-4.668 0.23c-1.8367 0-3.367-0.077-4.591-0.23-1.224-0.1533-2.1933-0.3573-2.908-0.612s-1.2247-0.5863-1.53-0.995-0.45867-0.8677-0.46-1.377v-80.576h-0.153l-28.695 80.499c-0.204 0.6633-0.53533 1.2243-0.994 1.683-0.45933 0.4087-1.097 0.7403-1.913 0.995-0.76533 0.2553-1.7603 0.4087-2.985 0.46-1.224 0.1013-2.7033 0.152-4.438 0.152s-3.214-0.077-4.438-0.23c-1.2247-0.1013-2.2447-0.2797-3.06-0.535-0.766-0.306-1.3783-0.663-1.837-1.071-0.45933-0.408-0.76567-0.8927-0.919-1.454l-27.7-80.5h-0.153v80.577c0 0.51-0.153 0.969-0.459 1.377-0.25467 0.408-0.76467 0.7397-1.53 0.995s-1.76 0.4593-2.984 0.612c-1.1733 0.1533-2.704 0.23-4.592 0.23-1.836 0-3.366-0.077-4.59-0.23-1.2247-0.1533-2.2197-0.3573-2.985-0.612-0.714-0.2553-1.224-0.587-1.53-0.995-0.25533-0.408-0.383-0.867-0.383-1.377v-88.228c0-2.602 0.68867-4.5917 2.066-5.969s3.214-2.066 5.51-2.066h13.16c2.3467 0 4.3617 0.204 6.045 0.612 1.684 0.3573 3.138 0.995 4.362 1.913 1.224 0.8673 2.244 2.0407 3.06 3.52 0.81667 1.4287 1.531 3.2143 2.143 5.357l21.426 58.997h0.306l22.191-58.844c0.66333-2.1427 1.3777-3.9537 2.143-5.433 0.816-1.48 1.7343-2.679 2.755-3.597 1.0713-0.918 2.3213-1.5557 3.75-1.913 1.428-0.408 3.0857-0.612 4.973-0.612h13.544c1.3773 0 2.5507 0.1787 3.52 0.536 1.02 0.3573 1.8363 0.893 2.449 1.607 0.66267 0.6633 1.147 1.505 1.453 2.525 0.35733 0.9693 0.536 2.0917 0.536 3.367zm89.6-34.67c0 5.8153-0.76533 11.121-2.296 15.916s-3.8517 8.9273-6.963 12.396c-3.112 3.4687-7.0147 6.147-11.708 8.035s-10.177 2.8313-16.452 2.83c-6.0707 0-11.351-0.8413-15.84-2.524-4.4893-1.684-8.2133-4.1327-11.172-7.346s-5.152-7.167-6.58-11.861-2.1423-10.051-2.143-16.07c0-5.8153 0.765-11.12 2.295-15.915 1.582-4.8467 3.9287-8.9787 7.04-12.396 3.112-3.4693 6.989-6.1477 11.631-8.035 4.6933-1.8873 10.177-2.831 16.452-2.831 6.122 0 11.427 0.8417 15.916 2.525 4.4893 1.6327 8.1877 4.056 11.095 7.27 2.9587 3.2133 5.152 7.1667 6.58 11.86s2.1427 10.076 2.144 16.147zm-19.819 0.765c0-3.3667-0.28067-6.453-0.842-9.259-0.51-2.8567-1.4027-5.3307-2.678-7.422s-2.9843-3.7237-5.127-4.897c-2.0913-1.1733-4.744-1.76-7.958-1.76-2.8567 0-5.3563 0.5357-7.499 1.607-2.1427 1.02-3.9027 2.55-5.28 4.59-1.3773 1.99-2.423 4.4133-3.137 7.27-0.66333 2.806-0.995 6.02-0.995 9.642 0 3.3667 0.28067 6.4783 0.842 9.335 0.56133 2.806 1.454 5.2547 2.678 7.346 1.2753 2.0913 2.9843 3.7237 5.127 4.897 2.1427 1.1227 4.7953 1.684 7.958 1.684 2.908 0 5.4333-0.51 7.576-1.53 2.142-1.072 3.902-2.6027 5.28-4.592s2.398-4.387 3.06-7.193c0.66333-2.8567 0.995-6.096 0.995-9.718zm78.819-27.845c0 1.8367-0.051 3.3417-0.153 4.515s-0.25533 2.0913-0.46 2.754-0.48467 1.122-0.84 1.378c-0.30667 0.2547-0.715 0.382-1.225 0.382-0.408 0-0.86733-0.077-1.378-0.23-0.51-0.2033-1.0967-0.407-1.76-0.611-0.612-0.204-1.3007-0.3827-2.066-0.536-0.76467-0.204-1.6063-0.306-2.525-0.306-1.0713 0-2.1427 0.2297-3.214 0.689-1.0707 0.408-2.1927 1.0713-3.366 1.99-1.1227 0.918-2.3217 2.142-3.597 3.672-1.224 1.5307-2.5503 3.4183-3.979 5.663v42.545c0 0.51-0.153 0.969-0.459 1.377-0.30667 0.3573-0.84233 0.6633-1.607 0.918-0.714 0.2553-1.6833 0.434-2.908 0.536-1.224 0.1533-2.7797 0.23-4.667 0.23-1.888 0-3.444-0.077-4.668-0.23-1.2247-0.102-2.2193-0.2807-2.984-0.536-0.71467-0.2547-1.2247-0.5607-1.53-0.918-0.30667-0.408-0.46-0.867-0.46-1.377v-68.256c0-0.5107 0.12767-0.9443 0.383-1.301 0.25467-0.408 0.71367-0.7397 1.377-0.995s1.505-0.434 2.525-0.536c1.0713-0.1533 2.398-0.23 3.98-0.23 1.632 0 2.9837 0.077 4.055 0.23 1.0713 0.102 1.8873 0.2807 2.448 0.536 0.61267 0.2553 1.0463 0.587 1.301 0.995 0.25533 0.3567 0.383 0.79 0.383 1.3v8.494c1.7853-2.5507 3.4687-4.642 5.05-6.274 1.5813-1.6833 3.0863-3.01 4.515-3.98s2.857-1.633 4.285-1.989c1.4287-0.408 2.857-0.612 4.285-0.612 0.66333 0 1.3777 0.051 2.143 0.153 0.76467 0.051 1.5553 0.179 2.372 0.383 0.816 0.1533 1.53 0.3573 2.142 0.612 0.61267 0.204 1.0463 0.4337 1.301 0.689 0.30667 0.2547 0.51067 0.535 0.612 0.841 0.15333 0.3067 0.281 0.7403 0.383 1.301 0.102 0.51 0.17867 1.3007 0.23 2.372 0.0507 1.0713 0.076 2.5253 0.076 4.362zm66.65 62.13c0 0.714-0.255 1.275-0.765 1.683s-1.3263 0.6887-2.449 0.842c-1.0713 0.204-2.678 0.306-4.82 0.306-2.296 0-3.9793-0.102-5.05-0.306-1.0207-0.1533-1.7607-0.434-2.22-0.842-0.408-0.408-0.612-0.969-0.612-1.683v-5.433c-2.806 3.01-6.02 5.3567-9.642 7.04-3.5707 1.6833-7.5497 2.525-11.937 2.525-3.622 0-6.9633-0.4847-10.024-1.454-3.0093-0.918-5.6363-2.2953-7.881-4.132-2.1933-1.8873-3.9023-4.2083-5.127-6.963s-1.837-5.9687-1.837-9.642c0-3.9787 0.76533-7.422 2.296-10.33 1.5813-2.9587 3.9023-5.382 6.963-7.27 3.112-1.938 6.9637-3.366 11.555-4.284s9.9223-1.3773 15.993-1.378h6.658v-4.132c0-2.142-0.23-4.004-0.69-5.586-0.4073-1.632-1.1213-2.9837-2.142-4.055-0.9693-1.0713-2.2957-1.862-3.979-2.372-1.632-0.5107-3.6723-0.766-6.121-0.766-3.214 0-6.0963 0.3573-8.647 1.072-2.5 0.714-4.719 1.5047-6.657 2.372s-3.5707 1.658-4.898 2.372c-1.2753 0.714-2.321 1.071-3.137 1.071-0.56133 0-1.0713-0.1783-1.53-0.535-0.408-0.3573-0.76533-0.8673-1.072-1.53-0.25467-0.664-0.45867-1.4807-0.612-2.45s-0.23-2.0403-0.23-3.213c0-1.5813 0.12767-2.8313 0.383-3.75s0.74-1.7347 1.454-2.448c0.714-0.7653 1.964-1.5817 3.75-2.449 1.7853-0.918 3.8767-1.7597 6.274-2.525s4.999-1.3777 7.805-1.837c2.8567-0.51 5.79-0.765 8.8-0.765 5.3567 0 9.9223 0.5357 13.697 1.607 3.826 1.02 6.9633 2.6267 9.412 4.82 2.4487 2.1433 4.234 4.924 5.356 8.342s1.6833 7.4737 1.684 12.167zm-18.9-29.231h-7.346c-3.112 0-5.7647 0.2297-7.958 0.689s-3.9787 1.148-5.356 2.066-2.3977 2.0403-3.061 3.367c-0.612 1.2753-0.918 2.7547-0.918 4.438 0 2.8567 0.8927 5.1013 2.678 6.734 1.836 1.632 4.361 2.448 7.575 2.448 2.704 0 5.1783-0.6887 7.423-2.066 2.2953-1.3773 4.6163-3.3923 6.963-6.045zm74.99 31.601-8.264 24.18c-0.4593 1.2753-1.7093 2.1937-3.75 2.755s-5.025 0.8417-8.953 0.841c-2.04 0-3.6723-0.102-4.897-0.306-1.224-0.1533-2.1423-0.4337-2.755-0.841s-0.944-0.9173-0.994-1.53c-0.051-0.6127 0.1017-1.3527 0.459-2.22l9.106-22.879c-0.6633-0.306-1.2757-0.765-1.837-1.377-0.51-0.6633-0.8927-1.352-1.148-2.066l-23.492-62.746c-0.6627-1.7853-0.994-3.1373-0.994-4.056 0-0.9693 0.306-1.709 0.918-2.219 0.612-0.5613 1.632-0.944 3.06-1.148 1.48-0.204 3.4187-0.306 5.816-0.306 2.1933 0 3.928 0.051 5.204 0.153 1.2753 0.051 2.27 0.23 2.984 0.536s1.2497 0.7907 1.607 1.454c0.3567 0.612 0.7137 1.5047 1.071 2.678l16.07 45.682h0.229l14.692-46.601c0.306-1.3267 0.6887-2.194 1.148-2.602 0.51-0.4587 1.326-0.7903 2.448-0.995s3.086-0.3067 5.892-0.306c2.1933 0 4.0043 0.102 5.433 0.306 1.48 0.2047 2.5513 0.5873 3.214 1.148 0.714 0.5613 1.071 1.3267 1.071 2.296 0 0.918-0.204 2.0147-0.612 3.29zm50.58-69.63c0 0.5613-0.1277 1.046-0.383 1.454s-0.6633 0.7397-1.224 0.995-1.3003 0.4593-2.219 0.612c-0.8667 0.102-1.9633 0.153-3.29 0.153-1.3773 0-2.5253-0.077-3.444-0.23-0.8667-0.1533-1.5807-0.3573-2.142-0.612s-0.9697-0.5863-1.225-0.995c-0.204-0.408-0.3313-0.867-0.382-1.377l-1.76-34.204c-0.051-0.51 0.076-0.969 0.382-1.377 0.3573-0.4087 0.893-0.7403 1.607-0.995 0.714-0.3067 1.6323-0.5107 2.755-0.612 1.1733-0.1533 2.576-0.23 4.208-0.23 1.684 0 3.0873 0.077 4.21 0.23 1.1213 0.102 2.0393 0.2803 2.754 0.535s1.2247 0.5863 1.53 0.995 0.433 0.8933 0.383 1.454zm69.02 47.75c0 3.8773-0.74 7.2953-2.22 10.254-1.428 2.9587-3.468 5.4327-6.12 7.422s-5.7897 3.469-9.413 4.439c-3.622 1.02-7.55 1.53-11.784 1.53-2.5507 0-4.9993-0.204-7.346-0.612-2.2953-0.3573-4.3613-0.8167-6.198-1.378-1.836-0.612-3.366-1.224-4.59-1.836s-2.1173-1.173-2.68-1.683c-0.56-0.5613-0.9933-1.4033-1.3-2.526-0.306-1.1733-0.459-2.882-0.459-5.126 0-1.48 0.051-2.6533 0.153-3.52 0.102-0.9187 0.2553-1.633 0.46-2.143 0.2033-0.5613 0.458-0.9183 0.764-1.071 0.3067-0.204 0.6893-0.306 1.148-0.306 0.5613 0 1.3777 0.3313 2.449 0.994 1.122 0.6127 2.4993 1.3013 4.132 2.066s3.52 1.479 5.662 2.143c2.1933 0.6633 4.6677 0.995 7.423 0.995 1.734 0 3.264-0.1787 4.59-0.536 1.378-0.3567 2.5513-0.8667 3.52-1.53 1.0207-0.6633 1.786-1.505 2.296-2.525s0.7653-2.1933 0.766-3.52c0-1.5307-0.4847-2.8317-1.454-3.903-0.9187-1.122-2.1687-2.0913-3.75-2.908-1.53-0.816-3.29-1.581-5.28-2.295-1.938-0.7147-3.953-1.5053-6.045-2.372-2.04-0.8673-4.055-1.8623-6.045-2.985-1.9387-1.122-3.6987-2.4993-5.28-4.132-1.53-1.632-2.78-3.596-3.75-5.892-0.918-2.2953-1.377-5.05-1.377-8.264 0-3.2647 0.6377-6.249 1.913-8.953 1.2753-2.7547 3.112-5.1013 5.51-7.04s5.3057-3.4433 8.723-4.514c3.4687-1.0713 7.3457-1.607 11.631-1.607 2.1427 0 4.2087 0.153 6.198 0.459 2.04 0.3067 3.8767 0.6893 5.51 1.148s3.0107 0.9687 4.132 1.53c1.122 0.51 1.9127 0.9693 2.372 1.378 0.51 0.3567 0.867 0.739 1.071 1.147 0.204 0.3573 0.3573 0.8167 0.46 1.378 0.1013 0.51 0.1777 1.1733 0.229 1.99 0.102 0.7647 0.153 1.7337 0.153 2.907 0 1.3773-0.051 2.4997-0.153 3.367-0.051 0.8667-0.179 1.5553-0.383 2.066-0.1533 0.51-0.383 0.867-0.689 1.071-0.306 0.1533-0.6627 0.23-1.07 0.23-0.46 0-1.1743-0.255-2.143-0.765-0.9693-0.5613-2.1937-1.148-3.673-1.76-1.4287-0.6127-3.112-1.174-5.05-1.684-1.888-0.5607-4.0563-0.841-6.505-0.841-1.7347 0-3.2397 0.1783-4.515 0.535s-2.321 0.8667-3.137 1.53-1.428 1.4543-1.836 2.373c-0.4087 0.8667-0.613 1.81-0.613 2.83 0 1.582 0.4847 2.9087 1.454 3.98s2.2447 2.015 3.826 2.831 3.367 1.5813 5.357 2.296c2.04 0.7133 4.0803 1.504 6.121 2.372 2.092 0.816 4.1327 1.7853 6.122 2.908 2.04 1.122 3.851 2.4993 5.433 4.132 1.5813 1.632 2.8567 3.596 3.826 5.892 0.9693 2.2447 1.454 4.9227 1.454 8.034zm106.59-68.87c0 1.5307-0.077 2.8313-0.23 3.902-0.102 1.02-0.306 1.8367-0.612 2.45-0.2547 0.6113-0.5607 1.07-0.918 1.376s-0.7653 0.4593-1.224 0.46h-32.368v26.629h30.378c0.4587 0 0.8667 0.1273 1.224 0.382s0.6633 0.6883 0.918 1.301c0.3067 0.612 0.5107 1.4283 0.612 2.449 0.1533 1.02 0.23 2.2953 0.23 3.826s-0.077 2.806-0.23 3.826c-0.102 1.02-0.306 1.8617-0.612 2.525-0.2547 0.6633-0.5607 1.148-0.918 1.454-0.3573 0.2547-0.7653 0.382-1.224 0.382h-30.378v36.883c0 0.5613-0.1533 1.046-0.46 1.454s-0.8677 0.7653-1.683 1.072c-0.7653 0.2547-1.7853 0.4587-3.06 0.612s-2.9073 0.23-4.898 0.23c-1.9387 0-3.571-0.077-4.897-0.23-1.2753-0.1533-2.2957-0.3573-3.061-0.612-0.7653-0.3067-1.3263-0.664-1.683-1.072-0.3067-0.408-0.46-0.8927-0.46-1.454v-89.758c0-2.2447 0.5613-3.8513 1.684-4.82 1.1733-1.02 2.6017-1.53 4.285-1.53h46.601c0.4593 0 0.8673 0.1527 1.224 0.458 0.3573 0.2553 0.6637 0.7147 0.919 1.378 0.306 0.612 0.51 1.4537 0.612 2.525 0.1533 1.0713 0.23 2.372 0.23 3.902zm59.07 26.25c0 1.8367-0.051 3.3417-0.153 4.515s-0.2553 2.0913-0.46 2.754-0.4847 1.122-0.84 1.378c-0.3067 0.2547-0.715 0.382-1.225 0.382-0.408 0-0.8673-0.077-1.378-0.23-0.51-0.2033-1.0967-0.407-1.76-0.611-0.612-0.204-1.3007-0.3827-2.066-0.536-0.7647-0.204-1.6063-0.306-2.525-0.306-1.0713 0-2.1427 0.2297-3.214 0.689-1.0707 0.408-2.1927 1.0713-3.366 1.99-1.1227 0.918-2.3217 2.142-3.597 3.672-1.224 1.5307-2.5503 3.4183-3.979 5.663v42.545c0 0.51-0.153 0.969-0.459 1.377-0.3067 0.3573-0.8423 0.6633-1.607 0.918-0.714 0.2553-1.6833 0.434-2.908 0.536-1.224 0.1533-2.7797 0.23-4.667 0.23-1.888 0-3.444-0.077-4.668-0.23-1.2247-0.102-2.2193-0.2807-2.984-0.536-0.7147-0.2547-1.2247-0.5607-1.53-0.918-0.3067-0.408-0.46-0.867-0.46-1.377v-68.256c0-0.5107 0.1277-0.9443 0.383-1.301 0.2547-0.408 0.7137-0.7397 1.377-0.995s1.505-0.434 2.525-0.536c1.0713-0.1533 2.398-0.23 3.98-0.23 1.632 0 2.9837 0.077 4.055 0.23 1.0713 0.102 1.8873 0.2807 2.448 0.536 0.6127 0.2553 1.0463 0.587 1.301 0.995 0.2553 0.3567 0.383 0.79 0.383 1.3v8.494c1.7853-2.5507 3.4687-4.642 5.05-6.274 1.5813-1.6833 3.0863-3.01 4.515-3.98s2.857-1.633 4.285-1.989c1.4287-0.408 2.857-0.612 4.285-0.612 0.6633 0 1.3777 0.051 2.143 0.153 0.7647 0.051 1.5553 0.179 2.372 0.383 0.816 0.1533 1.53 0.3573 2.142 0.612 0.6127 0.204 1.0463 0.4337 1.301 0.689 0.3067 0.2547 0.5107 0.535 0.612 0.841 0.1533 0.3067 0.281 0.7403 0.383 1.301 0.102 0.51 0.1787 1.3007 0.23 2.372 0.051 1.0713 0.076 2.5253 0.076 4.362zm31.15 61.9c0 0.51-0.1533 0.969-0.46 1.377-0.3053 0.3573-0.8407 0.6637-1.606 0.919-0.714 0.2547-1.6833 0.433-2.908 0.535-1.224 0.1533-2.78 0.23-4.668 0.23s-3.4437-0.077-4.667-0.23c-1.2247-0.102-2.2197-0.2803-2.985-0.535-0.7133-0.2553-1.2233-0.5617-1.53-0.919-0.306-0.408-0.459-0.867-0.459-1.377v-68.103c0-0.51 0.1533-0.9433 0.46-1.3 0.3053-0.4087 0.8153-0.7407 1.53-0.996 0.7647-0.306 1.7593-0.5353 2.984-0.688s2.7803-0.2293 4.667-0.23 3.4427 0.076 4.668 0.23 2.1947 0.3833 2.908 0.688c0.7653 0.2553 1.301 0.587 1.607 0.995 0.306 0.3573 0.459 0.791 0.459 1.301zm1.454-91.365c0 3.8773-0.7907 6.5557-2.372 8.035s-4.5147 2.219-8.8 2.219c-4.336 0-7.2693-0.7143-8.8-2.143-1.4793-1.428-2.219-4.004-2.219-7.728 0-3.8773 0.7653-6.5557 2.296-8.035 1.5813-1.5307 4.54-2.296 8.876-2.296 4.2853 0 7.193 0.74 8.723 2.22 1.5307 1.428 2.296 4.004 2.296 7.728zm80.876 55.245c0 2.3467-0.5357 4.081-1.607 5.203-1.02 1.1227-2.4483 1.684-4.285 1.684h-41.55c0 2.9073 0.3317 5.56 0.995 7.958 0.714 2.3467 1.8107 4.3617 3.29 6.045 1.5307 1.6327 3.4693 2.8827 5.816 3.75 2.3973 0.8667 5.254 1.3 8.57 1.3 3.3667 0 6.3253-0.2293 8.876-0.688 2.5507-0.5107 4.744-1.0463 6.58-1.607 1.888-0.6127 3.4443-1.1483 4.669-1.607 1.224-0.51 2.2187-0.765 2.984-0.765 0.4593 0 0.842 0.102 1.148 0.306 0.306 0.1533 0.561 0.4593 0.765 0.918s0.3313 1.122 0.382 1.99c0.102 0.816 0.153 1.8617 0.153 3.137 0 1.122-0.025 2.0913-0.076 2.908-0.051 0.7647-0.1273 1.4277-0.23 1.989-0.102 0.5613-0.255 1.046-0.459 1.454-0.204 0.3573-0.4843 0.7143-0.841 1.071-0.3067 0.3573-1.1997 0.842-2.679 1.454s-3.3667 1.2243-5.662 1.837c-2.2953 0.5607-4.9227 1.0453-7.882 1.454-2.9587 0.4587-6.1213 0.688-9.488 0.688-6.0707 0-11.402-0.765-15.993-2.295-4.54-1.5307-8.3403-3.852-11.401-6.964s-5.3563-7.04-6.887-11.784c-1.48-4.744-2.22-10.304-2.22-16.68 0-6.0713 0.791-11.53 2.373-16.376 1.5813-4.8973 3.877-9.0293 6.887-12.396 3.01-3.4173 6.6573-6.019 10.942-7.805 4.336-1.7853 9.2077-2.678 14.615-2.678 5.7133 0 10.585 0.8417 14.615 2.525 4.0807 1.684 7.422 4.0307 10.024 7.04 2.6013 2.9587 4.5143 6.4787 5.739 10.56s1.8367 8.5193 1.836 13.314zm-18.671-5.51c0.1533-5.4067-0.9433-9.6403-3.29-12.701-2.296-3.112-5.867-4.668-10.713-4.668-2.4487 0-4.5913 0.459-6.428 1.377-1.7853 0.9187-3.2903 2.1687-4.515 3.75-1.1733 1.53-2.0917 3.3667-2.755 5.51-0.612 2.0907-0.9687 4.335-1.07 6.733zm99.781 41.63c0 0.51-0.1533 0.969-0.46 1.377-0.3053 0.3573-0.8153 0.6637-1.53 0.919s-1.7093 0.4337-2.984 0.535c-1.224 0.1533-2.7543 0.23-4.591 0.23-1.8873 0-3.4687-0.077-4.744-0.23-1.2247-0.102-2.194-0.2803-2.908-0.535s-1.224-0.561-1.53-0.919c-0.3067-0.408-0.46-0.867-0.46-1.377v-38.949c0-3.316-0.255-5.9177-0.765-7.805-0.4587-1.8873-1.1473-3.494-2.066-4.82-0.918-1.378-2.1167-2.424-3.596-3.138-1.4287-0.7653-3.112-1.148-5.05-1.148-2.4487 0-4.923 0.8927-7.423 2.678s-5.1017 4.387-7.805 7.805v45.376c0 0.51-0.153 0.9693-0.459 1.378-0.3067 0.3567-0.8423 0.6627-1.607 0.918-0.714 0.2553-1.6833 0.434-2.908 0.536-1.224 0.1533-2.7797 0.23-4.667 0.23s-3.4433-0.077-4.668-0.23c-1.2247-0.102-2.2193-0.2807-2.984-0.536-0.7147-0.2553-1.2247-0.5613-1.53-0.918-0.3067-0.408-0.46-0.8673-0.46-1.378v-68.256c0-0.51 0.1277-0.9433 0.383-1.3 0.2547-0.4087 0.7137-0.7403 1.377-0.995s1.505-0.4333 2.525-0.536c1.0713-0.1533 2.398-0.23 3.98-0.23 1.632 0 2.9837 0.077 4.055 0.23 1.0713 0.102 1.8877 0.2807 2.449 0.536 0.612 0.2547 1.0453 0.586 1.3 0.994 0.2553 0.3573 0.383 0.791 0.383 1.301v7.882c3.7747-4.0813 7.6007-7.1423 11.478-9.183 3.928-2.04 8.009-3.06 12.243-3.06 4.642 0 8.5447 0.765 11.708 2.295 3.2133 1.5307 5.7893 3.6223 7.728 6.275 1.99 2.6013 3.4187 5.662 4.286 9.182s1.3007 7.754 1.3 12.702zm83.72 0c0 0.5613-0.1277 1.046-0.383 1.454-0.2547 0.3573-0.688 0.6633-1.3 0.918s-1.454 0.4333-2.526 0.536c-1.02 0.102-2.2953 0.153-3.826 0.153-1.632 0-2.9583-0.051-3.979-0.153s-1.8623-0.2807-2.525-0.536c-0.612-0.2547-1.071-0.5607-1.377-0.918-0.2553-0.408-0.383-0.8927-0.383-1.454v-7.575c-3.52 3.7747-7.2183 6.708-11.095 8.8-3.826 2.0913-8.0857 3.137-12.779 3.137-5.2033 0-9.616-0.995-13.238-2.985-3.5707-2.04-6.504-4.769-8.8-8.187-2.2447-3.418-3.877-7.397-4.897-11.937-1.02-4.5913-1.53-9.412-1.53-14.462 0-6.0707 0.6377-11.529 1.913-16.375 1.3267-4.8467 3.2397-8.9787 5.739-12.396 2.5-3.418 5.6117-6.0453 9.335-7.882s8.0083-2.755 12.855-2.755c3.8267 0 7.2957 0.791 10.407 2.373 3.112 1.53 6.1983 3.8 9.259 6.81v-36.96c0-0.5093 0.1277-0.9683 0.383-1.377 0.306-0.408 0.816-0.7393 1.53-0.994 0.7653-0.3067 1.76-0.5363 2.984-0.689 1.2247-0.1533 2.7807-0.23 4.668-0.23s3.4433 0.077 4.668 0.23c1.2247 0.1533 2.1937 0.383 2.907 0.689 0.7147 0.2547 1.2247 0.586 1.53 0.994s0.4587 0.8673 0.46 1.378zm-19.13-45.606c-2.7547-3.4687-5.4073-6.1213-7.958-7.958-2.5-1.8367-5.1273-2.755-7.882-2.755-2.5 0-4.668 0.6377-6.504 1.913-1.7853 1.2247-3.2393 2.8827-4.362 4.974-1.0707 2.0913-1.8867 4.438-2.448 7.04-0.51 2.5507-0.765 5.1777-0.765 7.881 0 2.8567 0.2293 5.637 0.688 8.341s1.1987 5.1273 2.22 7.27c1.0707 2.0913 2.4733 3.7747 4.208 5.05s3.928 1.913 6.58 1.913c1.3267 0 2.6023-0.1787 3.827-0.536 1.2753-0.408 2.5507-1.0457 3.826-1.913 1.3267-0.8667 2.6783-1.989 4.055-3.367 1.3773-1.428 2.8823-3.1623 4.515-5.203zm57.89 45.606c0 0.51-0.1533 0.969-0.46 1.377-0.3053 0.3573-0.8407 0.6637-1.606 0.919-0.714 0.2547-1.6833 0.433-2.908 0.535-1.224 0.1533-2.7797 0.23-4.667 0.23-1.888 0-3.444-0.077-4.668-0.23-1.2247-0.102-2.2193-0.2803-2.984-0.535-0.7147-0.2553-1.2247-0.5617-1.53-0.919-0.3067-0.408-0.46-0.867-0.46-1.377v-100.62c0-0.51 0.1533-0.969 0.46-1.377 0.3053-0.4087 0.8153-0.7403 1.53-0.995 0.7647-0.3067 1.7593-0.5363 2.984-0.689 1.224-0.1533 2.78-0.23 4.668-0.23 1.8867 0 3.4423 0.077 4.667 0.23 1.2247 0.1533 2.194 0.383 2.908 0.689 0.7653 0.2547 1.301 0.5863 1.607 0.995 0.306 0.408 0.459 0.867 0.459 1.377zm58.8 2.6-8.264 24.18c-0.4593 1.2753-1.7093 2.1937-3.75 2.755s-5.0247 0.8417-8.952 0.841c-2.0407 0-3.6733-0.102-4.898-0.306-1.224-0.1533-2.1423-0.4337-2.755-0.841-0.612-0.4087-0.9433-0.9187-0.994-1.53-0.051-0.6127 0.1023-1.3527 0.459-2.22l9.106-22.879c-0.6633-0.306-1.2757-0.765-1.837-1.377-0.51-0.6633-0.8927-1.352-1.148-2.066l-23.492-62.746c-0.6627-1.7853-0.994-3.1373-0.994-4.056 0-0.9693 0.306-1.709 0.918-2.219 0.612-0.5613 1.632-0.944 3.06-1.148 1.48-0.204 3.4187-0.306 5.816-0.306 2.1933 0 3.928 0.051 5.204 0.153 1.2753 0.051 2.27 0.23 2.984 0.536s1.2497 0.7907 1.607 1.454c0.3567 0.612 0.7137 1.5047 1.071 2.678l16.069 45.682h0.23l14.692-46.601c0.306-1.3267 0.6883-2.194 1.147-2.602 0.5107-0.4587 1.3273-0.7903 2.45-0.995 1.1213-0.204 3.085-0.306 5.891-0.306 2.1933 0 4.0043 0.102 5.433 0.306 1.48 0.2047 2.5513 0.5873 3.214 1.148 0.714 0.5613 1.071 1.3267 1.071 2.296 0 0.918-0.204 2.0147-0.612 3.29zm130.2-29.69c0 5.2033-0.9693 9.769-2.908 13.697-1.938 3.928-4.565 7.2183-7.881 9.871-3.316 2.602-7.193 4.566-11.631 5.892-4.4387 1.3267-9.183 1.99-14.233 1.99-3.418 0-6.6063-0.2807-9.565-0.842-2.908-0.5613-5.4843-1.2247-7.729-1.99-2.2447-0.816-4.132-1.6577-5.662-2.525-1.48-0.8667-2.5513-1.6317-3.214-2.295-0.6633-0.6633-1.148-1.6073-1.454-2.832-0.2553-1.2753-0.383-3.0863-0.383-5.433 0-1.5813 0.051-2.9077 0.153-3.979 0.102-1.0707 0.2553-1.9377 0.46-2.601 0.2547-0.6633 0.5607-1.1227 0.918-1.378 0.408-0.306 0.867-0.459 1.377-0.459 0.714 0 1.7087 0.4337 2.984 1.301 1.3267 0.816 3.01 1.7343 5.05 2.755s4.4633 1.9643 7.27 2.831c2.8567 0.816 6.147 1.224 9.871 1.224 2.4487 0 4.642-0.2803 6.58-0.841 1.9393-0.6127 3.572-1.4547 4.898-2.526 1.3773-1.0713 2.4233-2.3977 3.138-3.979s1.0713-3.3413 1.07-5.28c0-2.244-0.612-4.157-1.836-5.739-1.224-1.632-2.8307-3.0603-4.82-4.285-1.9387-1.2753-4.158-2.4487-6.658-3.52-2.5-1.122-5.076-2.2953-7.728-3.52-2.6533-1.224-5.2297-2.6013-7.729-4.132-2.5-1.5813-4.7443-3.4433-6.733-5.586-1.9387-2.1933-3.5203-4.7693-4.745-7.728-1.224-2.9587-1.836-6.504-1.836-10.636 0-4.744 0.8673-8.9017 2.602-12.473 1.7853-3.622 4.1573-6.6063 7.116-8.953 3.01-2.3973 6.53-4.1827 10.56-5.356 4.0807-1.1733 8.3913-1.76 12.932-1.76 2.3467 0 4.6933 0.1783 7.04 0.535s4.54 0.8413 6.58 1.454 3.851 1.3013 5.433 2.066c1.5813 0.7653 2.6273 1.403 3.138 1.913s0.842 0.9437 0.994 1.301c0.204 0.3573 0.3573 0.842 0.46 1.454 0.1527 0.5613 0.2547 1.3013 0.306 2.22 0.051 0.8667 0.077 1.9633 0.077 3.29 0 1.4793-0.051 2.729-0.153 3.749-0.051 1.02-0.179 1.8617-0.383 2.525-0.1533 0.6633-0.4083 1.148-0.765 1.454-0.3067 0.3067-0.7403 0.46-1.301 0.46-0.5613 0-1.454-0.3573-2.678-1.072-1.2247-0.714-2.7297-1.4793-4.515-2.296-1.7853-0.8667-3.8513-1.6317-6.198-2.295-2.3467-0.7147-4.923-1.072-7.729-1.072-2.1933 0-4.1063 0.2807-5.739 0.842-1.632 0.51-3.0093 1.25-4.132 2.22-1.0713 0.918-1.8873 2.04-2.448 3.366-0.5107 1.3267-0.766 2.7297-0.766 4.209 0 2.1933 0.5867 4.1063 1.76 5.739 1.2247 1.5813 2.8317 3.0097 4.821 4.285 2.04 1.224 4.3357 2.3973 6.887 3.52 2.5507 1.0713 5.1523 2.219 7.805 3.443 2.6527 1.2247 5.2543 2.6277 7.805 4.209 2.5507 1.53 4.8207 3.392 6.81 5.586 1.99 2.1427 3.597 4.6933 4.821 7.652 1.2247 2.9073 1.837 6.3507 1.837 10.33zm83.2-7.73c0 5.8153-0.7653 11.121-2.296 15.916s-3.8517 8.9273-6.963 12.396c-3.112 3.4687-7.0147 6.147-11.708 8.035-4.6933 1.8867-10.177 2.83-16.452 2.83-6.0707 0-11.351-0.8413-15.84-2.524-4.4893-1.684-8.2133-4.1327-11.172-7.346s-5.152-7.167-6.58-11.861c-1.4287-4.6933-2.143-10.05-2.143-16.07 0-5.8153 0.765-11.12 2.295-15.915 1.5813-4.8467 3.928-8.9787 7.04-12.396 3.112-3.4693 6.989-6.1477 11.631-8.035 4.6933-1.8873 10.177-2.831 16.452-2.831 6.122 0 11.427 0.8417 15.916 2.525 4.4893 1.6327 8.1877 4.056 11.095 7.27 2.9587 3.2133 5.152 7.1667 6.58 11.86s2.1427 10.076 2.144 16.147zm-19.819 0.765c0-3.3667-0.2807-6.453-0.842-9.259-0.51-2.8567-1.4027-5.3307-2.678-7.422s-2.9843-3.7237-5.127-4.897c-2.0913-1.1733-4.744-1.76-7.958-1.76-2.8567 0-5.3563 0.5357-7.499 1.607-2.1427 1.02-3.9027 2.55-5.28 4.59-1.3773 1.99-2.423 4.4133-3.137 7.27-0.6633 2.806-0.995 6.02-0.995 9.642 0 3.3667 0.2807 6.4783 0.842 9.335 0.5613 2.806 1.454 5.2547 2.678 7.346 1.2753 2.0913 2.9843 3.7237 5.127 4.897 2.1427 1.1227 4.7953 1.684 7.958 1.684 2.908 0 5.433-0.51 7.575-1.53 2.1427-1.072 3.9027-2.6027 5.28-4.592s2.3977-4.387 3.061-7.193c0.6633-2.8567 0.995-6.096 0.995-9.718zm99.719 34.055c0 0.51-0.1277 0.969-0.383 1.377-0.2547 0.3573-0.7137 0.6637-1.377 0.919-0.612 0.2547-1.4537 0.433-2.525 0.535-1.02 0.1533-2.321 0.23-3.903 0.23-1.6833 0-3.0607-0.077-4.132-0.23-1.02-0.102-1.836-0.2803-2.448-0.535-0.6127-0.2553-1.0463-0.5617-1.301-0.919-0.2553-0.408-0.383-0.867-0.383-1.377v-7.882c-3.7747 4.0813-7.626 7.1423-11.554 9.183-3.8767 2.04-7.9067 3.06-12.09 3.06-4.6933 0-8.6467-0.765-11.86-2.295-3.1633-1.5307-5.74-3.6223-7.73-6.275-1.938-2.6527-3.3407-5.7133-4.208-9.182-0.816-3.52-1.224-7.8817-1.224-13.085v-41.78c0-0.51 0.1273-0.9433 0.382-1.3 0.3067-0.4087 0.8167-0.7407 1.53-0.996 0.766-0.2547 1.761-0.433 2.985-0.535 1.2753-0.1533 2.8313-0.23 4.668-0.23 1.8873 0 3.443 0.077 4.667 0.23 1.2247 0.102 2.194 0.2803 2.908 0.535 0.7653 0.2553 1.301 0.587 1.607 0.995 0.3067 0.3573 0.46 0.791 0.46 1.301v38.566c0 3.5707 0.2293 6.3 0.688 8.188s1.1473 3.5203 2.066 4.897c0.9693 1.3267 2.168 2.3723 3.596 3.137 1.48 0.7147 3.189 1.072 5.127 1.072 2.4487 0 4.8973-0.893 7.346-2.679 2.5-1.7853 5.1527-4.387 7.958-7.805v-45.376c0-0.51 0.1277-0.9433 0.383-1.3 0.3067-0.4087 0.8167-0.7403 1.53-0.995 0.7653-0.2553 1.7603-0.434 2.985-0.536 1.224-0.1533 2.7797-0.23 4.667-0.23 1.888 0 3.444 0.077 4.668 0.23 1.224 0.102 2.1933 0.2807 2.908 0.536s1.2247 0.587 1.53 0.995c0.3067 0.3567 0.46 0.79 0.46 1.3zm84.6 0c0 0.51-0.1533 0.969-0.46 1.377-0.3053 0.3573-0.8153 0.6637-1.53 0.919-0.7133 0.2547-1.708 0.433-2.984 0.535-1.224 0.1533-2.7543 0.23-4.591 0.23-1.8873 0-3.4687-0.077-4.744-0.23-1.2247-0.102-2.194-0.2803-2.908-0.535-0.714-0.2553-1.224-0.5617-1.53-0.919-0.3067-0.408-0.46-0.867-0.46-1.377v-38.949c0-3.316-0.255-5.9177-0.765-7.805-0.4587-1.8873-1.1473-3.494-2.066-4.82-0.918-1.378-2.1167-2.424-3.596-3.138-1.4287-0.7653-3.112-1.148-5.05-1.148-2.4487 0-4.923 0.8927-7.423 2.678s-5.1017 4.387-7.805 7.805v45.376c0 0.51-0.1533 0.9693-0.46 1.378-0.3053 0.3567-0.8407 0.6627-1.606 0.918-0.714 0.2553-1.6833 0.434-2.908 0.536-1.224 0.1533-2.78 0.23-4.668 0.23-1.8867 0-3.4423-0.077-4.667-0.23-1.2247-0.102-2.2197-0.2807-2.985-0.536-0.7133-0.2553-1.2233-0.5613-1.53-0.918-0.3067-0.408-0.46-0.8673-0.46-1.378v-68.256c0-0.51 0.128-0.9433 0.384-1.3 0.2547-0.4087 0.7137-0.7403 1.377-0.995 0.6633-0.2553 1.505-0.434 2.525-0.536 1.0713-0.1533 2.398-0.23 3.98-0.23 1.632 0 2.9837 0.077 4.055 0.23 1.0713 0.102 1.8873 0.2807 2.448 0.536 0.6127 0.2547 1.0463 0.586 1.301 0.994 0.2553 0.3573 0.383 0.791 0.383 1.301v7.882c3.7747-4.0813 7.6007-7.1423 11.478-9.183 3.928-2.04 8.009-3.06 12.243-3.06 4.642 0 8.5447 0.765 11.708 2.295 3.2133 1.5307 5.7893 3.6223 7.728 6.275 1.9893 2.6013 3.4177 5.662 4.285 9.182s1.301 7.754 1.301 12.702zm83.7 0c0 0.5613-0.1277 1.046-0.383 1.454-0.2547 0.3573-0.688 0.6633-1.3 0.918-0.6127 0.2553-1.4547 0.434-2.526 0.536-1.02 0.102-2.2953 0.153-3.826 0.153-1.632 0-2.9583-0.051-3.979-0.153s-1.8623-0.2807-2.525-0.536c-0.612-0.2547-1.071-0.5607-1.377-0.918-0.2553-0.408-0.383-0.8927-0.383-1.454v-7.575c-3.52 3.7747-7.2183 6.708-11.095 8.8-3.826 2.0913-8.0857 3.137-12.779 3.137-5.2033 0-9.616-0.995-13.238-2.985-3.5707-2.04-6.504-4.769-8.8-8.187-2.244-3.418-3.8763-7.397-4.897-11.937-1.02-4.5913-1.53-9.412-1.53-14.462 0-6.0707 0.6377-11.529 1.913-16.375 1.3267-4.8467 3.2397-8.9787 5.739-12.396s5.611-6.0447 9.335-7.882c3.724-1.8367 8.009-2.755 12.855-2.755 3.8267 0 7.2957 0.791 10.407 2.373 3.112 1.53 6.1983 3.8 9.259 6.81v-36.96c0-0.5093 0.1277-0.9683 0.383-1.377 0.306-0.408 0.816-0.7393 1.53-0.994 0.7653-0.3067 1.76-0.5363 2.984-0.689s2.78-0.2293 4.668-0.23c1.8873 0 3.4433 0.077 4.668 0.23 1.2247 0.1533 2.194 0.383 2.908 0.689 0.7133 0.2547 1.2233 0.586 1.53 0.994 0.3067 0.4087 0.46 0.868 0.46 1.378zm-19.13-45.606c-2.7547-3.4687-5.4073-6.1213-7.958-7.958-2.5-1.8367-5.1273-2.755-7.882-2.755-2.5 0-4.668 0.6377-6.504 1.913-1.7853 1.2247-3.239 2.8827-4.361 4.974-1.0713 2.0913-1.888 4.438-2.45 7.04-0.5093 2.5507-0.764 5.1777-0.764 7.881 0 2.8567 0.2293 5.637 0.688 8.341s1.1987 5.1273 2.22 7.27c1.0707 2.0913 2.4733 3.7747 4.208 5.05s3.928 1.913 6.58 1.913c1.3267 0 2.6023-0.1787 3.827-0.536 1.2753-0.408 2.5507-1.0457 3.826-1.913 1.3267-0.8667 2.6783-1.989 4.055-3.367 1.3773-1.428 2.8823-3.1623 4.515-5.203zm-2002.7 40.596c0 1.418-0.076 2.6333-0.228 3.646-0.152 0.962-0.38 1.747-0.684 2.355-0.25333 0.5567-0.557 0.9617-0.911 1.215s-0.759 0.38-1.215 0.38h-54.234c-0.40533 0-0.78533-0.1267-1.14-0.38-0.354-0.2533-0.683-0.6583-0.987-1.215-0.25333-0.608-0.456-1.393-0.608-2.355-0.152-1.0133-0.228-2.2287-0.228-3.646 0-1.4687 0.0507-2.684 0.152-3.646 0.152-1.0133 0.35467-1.8233 0.608-2.43 0.304-0.608 0.633-1.0387 0.987-1.292 0.35467-0.304 0.76-0.456 1.216-0.456h18.306v-63.957l-15.8 8.735c-1.164 0.5573-2.126 0.912-2.886 1.064-0.70867 0.1013-1.291-0.051-1.747-0.456-0.40467-0.456-0.683-1.2157-0.835-2.279s-0.228-2.557-0.228-4.481c0-1.2153 0.0253-2.203 0.076-2.963 0.0507-0.81 0.17733-1.4933 0.38-2.05 0.202-0.5573 0.48033-1.0133 0.835-1.368s0.83567-0.7347 1.443-1.14l21.116-13.672c0.25333-0.2027 0.55733-0.3547 0.912-0.456 0.40467-0.152 0.911-0.2533 1.519-0.304 0.60733-0.1013 1.3923-0.152 2.355-0.152 1.0127-0.051 2.304-0.076 3.874-0.076 1.924 0 3.4683 0.051 4.633 0.152 1.2153 0.051 2.127 0.1773 2.735 0.38 0.60733 0.152 1.0123 0.38 1.215 0.684 0.20267 0.3033 0.304 0.683 0.304 1.139v81.2h16.027c0.45533 0 0.86033 0.152 1.215 0.456 0.40533 0.2533 0.73433 0.6837 0.987 1.291 0.304 0.608 0.50667 1.418 0.608 2.43 0.152 0.9627 0.228 2.1783 0.228 3.647zm81.89-41.93c0 7.8493-0.633 14.939-1.899 21.268s-3.3423 11.722-6.229 16.179c-2.8353 4.456-6.5573 7.874-11.166 10.254-4.5573 2.38-10.153 3.57-16.787 3.57-6.7347 0-12.305-1.1393-16.71-3.418-4.406-2.3293-7.9003-5.646-10.483-9.95-2.582-4.3553-4.405-9.6473-5.469-15.876-1.0127-6.2793-1.519-13.369-1.519-21.268 0-7.7987 0.63333-14.863 1.9-21.192 1.316-6.38 3.392-11.798 6.228-16.255 2.8867-4.456 6.6087-7.874 11.166-10.254 4.608-2.38 10.204-3.57 16.787-3.57 6.7347 0 12.305 1.1647 16.71 3.494 4.4567 2.2787 7.9763 5.5957 10.559 9.951 2.5827 4.304 4.3803 9.5957 5.393 15.875 1.0127 6.2287 1.519 13.293 1.519 21.192zm-20.129 0.987c0-4.6587-0.12667-8.7603-0.38-12.305-0.25333-3.5953-0.65833-6.7093-1.215-9.342-0.50667-2.6333-1.165-4.8617-1.975-6.685-0.76-1.8227-1.6967-3.266-2.81-4.33-1.1147-1.1133-2.3807-1.898-3.798-2.354-1.418-0.456-2.988-0.684-4.71-0.684-2.9873 0-5.4687 0.7343-7.444 2.203-1.924 1.418-3.4683 3.5703-4.633 6.457-1.114 2.8867-1.899 6.482-2.355 10.786s-0.684 9.3173-0.684 15.04c0 6.988 0.27867 12.786 0.836 17.394 0.55733 4.5573 1.4183 8.2033 2.583 10.938 1.2153 2.6833 2.7597 4.582 4.633 5.696 1.8733 1.064 4.1267 1.596 6.76 1.596 1.9753 0 3.7227-0.304 5.242-0.912 1.5187-0.658 2.8353-1.62 3.95-2.886 1.164-1.2667 2.126-2.862 2.886-4.786s1.3677-4.152 1.823-6.684c0.50667-2.532 0.83567-5.393 0.987-8.583 0.20267-3.1907 0.304-6.71 0.304-10.558zm97.069-41.317c0 1.4687-0.0507 2.76-0.152 3.874-0.10133 1.0633-0.25333 2.076-0.456 3.038-0.152 0.9113-0.37967 1.7977-0.683 2.659-0.304 0.81-0.65867 1.696-1.064 2.658l-32.358 74.971c-0.30333 0.6587-0.70833 1.1903-1.215 1.595-0.456 0.4053-1.1143 0.7347-1.975 0.988-0.86067 0.2027-1.9747 0.3293-3.342 0.38-1.3167 0.1013-2.9623 0.152-4.937 0.152-2.684 0-4.8107-0.1013-6.38-0.304-1.5707-0.152-2.7357-0.4053-3.495-0.76-0.70867-0.4047-1.0887-0.8857-1.14-1.443-0.05-0.6073 0.12733-1.3417 0.532-2.203l34.79-76.718h-41.322c-1.0633 0-1.8733-0.6833-2.43-2.05-0.50667-1.418-0.76-3.6463-0.76-6.685 0-1.5193 0.076-2.8107 0.228-3.874 0.152-1.114 0.35467-2.0253 0.608-2.734 0.30333-0.7093 0.63233-1.216 0.987-1.52 0.40533-0.3033 0.861-0.455 1.367-0.455h58.412c0.912 0 1.672 0.101 2.28 0.303 0.60667 0.152 1.0873 0.532 1.442 1.14s0.608 1.4687 0.76 2.582c0.20267 1.1147 0.304 2.5833 0.304 4.406zm38.51 78.92c0 4.7093-0.83567 7.8743-2.507 9.495-1.62 1.62-4.5567 2.43-8.81 2.43-4.254 0-7.1913-0.7847-8.812-2.354-1.62-1.62-2.43-4.6583-2.43-9.115 0-4.76 0.81-7.9503 2.43-9.571 1.6713-1.62 4.659-2.43 8.963-2.43 4.2033 0 7.115 0.81 8.735 2.43 1.6207 1.57 2.431 4.6083 2.431 9.115zm82.11-78.92c0 1.4687-0.0507 2.76-0.152 3.874-0.10133 1.0633-0.25333 2.076-0.456 3.038-0.152 0.9113-0.37967 1.7977-0.683 2.659-0.304 0.81-0.65867 1.696-1.064 2.658l-32.358 74.971c-0.30333 0.6587-0.70833 1.1903-1.215 1.595-0.456 0.4053-1.1143 0.7347-1.975 0.988-0.86067 0.2027-1.9747 0.3293-3.342 0.38-1.3167 0.1013-2.9623 0.152-4.937 0.152-2.684 0-4.8107-0.1013-6.38-0.304-1.5707-0.152-2.7357-0.4053-3.495-0.76-0.70867-0.4047-1.0887-0.8857-1.14-1.443-0.05-0.6073 0.12733-1.3417 0.532-2.203l34.79-76.718h-41.322c-1.0633 0-1.8733-0.6833-2.43-2.05-0.50667-1.418-0.76-3.6463-0.76-6.685 0-1.5193 0.076-2.8107 0.228-3.874 0.152-1.114 0.35467-2.0253 0.608-2.734 0.30333-0.7093 0.63233-1.216 0.987-1.52 0.40533-0.3033 0.861-0.455 1.367-0.455h58.412c0.912 0 1.672 0.101 2.28 0.303 0.60667 0.152 1.0873 0.532 1.442 1.14s0.608 1.4687 0.76 2.582c0.20267 1.1147 0.304 2.5833 0.304 4.406zm37.59 48.61c0 0.7027-0.035 1.2997-0.105 1.791-0.0467 0.468-0.14033 0.8427-0.281 1.124-0.11733 0.2807-0.258 0.4913-0.422 0.632-0.164 0.14-0.35133 0.21-0.562 0.21h-14.856v12.223h13.943c0.21067 0 0.398 0.058 0.562 0.175 0.164 0.1173 0.30467 0.3163 0.422 0.597 0.14 0.2813 0.23333 0.656 0.28 1.124 0.0707 0.4687 0.106 1.054 0.106 1.756 0 0.7027-0.035 1.288-0.105 1.756-0.0467 0.4687-0.14033 0.8553-0.281 1.16-0.11733 0.304-0.258 0.5263-0.422 0.667-0.164 0.1167-0.35133 0.175-0.562 0.175h-13.943v16.928c0 0.2573-0.07 0.4797-0.21 0.667s-0.39767 0.3513-0.773 0.492c-0.35133 0.1173-0.81967 0.211-1.405 0.281s-1.3347 0.105-2.248 0.105c-0.88933 0-1.6383-0.035-2.247-0.105-0.58533-0.07-1.0537-0.1633-1.405-0.28-0.35133-0.1413-0.609-0.3057-0.773-0.493-0.14-0.1867-0.21-0.409-0.21-0.667v-41.196c0-1.03 0.25733-1.7673 0.772-2.212 0.53867-0.4687 1.1943-0.703 1.967-0.703h21.388c0.21067 0 0.398 0.07 0.562 0.21 0.164 0.1173 0.30433 0.3283 0.421 0.633 0.14067 0.2807 0.23433 0.667 0.281 1.159 0.0707 0.492 0.106 1.089 0.106 1.791zm60.474 40.39c0 0.234-0.07 0.4447-0.21 0.632-0.11733 0.1873-0.35167 0.3397-0.703 0.457-0.328 0.1167-0.773 0.21-1.335 0.28s-1.276 0.1053-2.142 0.106c-0.84267 0-1.545-0.035-2.107-0.105s-1.007-0.1637-1.335-0.281-0.562-0.2697-0.702-0.457-0.21-0.398-0.21-0.632v-36.982h-0.071l-13.17 36.946c-0.0933 0.3047-0.24567 0.5623-0.457 0.773-0.21067 0.1867-0.50333 0.3387-0.878 0.456-0.35133 0.1173-0.808 0.1873-1.37 0.21-0.56133 0.047-1.24 0.071-2.036 0.071-0.79667 0-1.4757-0.035-2.037-0.105-0.562-0.047-1.0303-0.1287-1.405-0.246-0.35133-0.14-0.63233-0.304-0.843-0.492-0.21067-0.1867-0.35133-0.409-0.422-0.667l-12.714-36.946h-0.07v36.982c0 0.234-0.07 0.4447-0.21 0.632-0.11733 0.1873-0.35167 0.3397-0.703 0.457-0.35133 0.1167-0.808 0.21-1.37 0.28-0.538 0.071-1.2403 0.106-2.107 0.106-0.84267 0-1.545-0.035-2.107-0.105-0.562-0.071-1.0187-0.1643-1.37-0.281-0.32733-0.1173-0.56133-0.2697-0.702-0.457-0.11733-0.1867-0.176-0.3973-0.176-0.632v-40.494c0-1.194 0.31633-2.1073 0.949-2.74 0.632-0.632 1.4747-0.948 2.528-0.948h6.04c1.0773 0 2.0023 0.094 2.775 0.281 0.77333 0.164 1.4407 0.4567 2.002 0.878 0.562 0.398 1.0303 0.9367 1.405 1.616 0.37467 0.6553 0.70233 1.4747 0.983 2.458l9.834 27.078h0.14l10.185-27.007c0.30467-0.9833 0.63267-1.8143 0.984-2.493 0.37467-0.6793 0.796-1.2293 1.264-1.65 0.492-0.422 1.0653-0.715 1.72-0.879 0.656-0.1867 1.4173-0.28 2.284-0.28h6.216c0.632 0 1.1707 0.082 1.616 0.245 0.468 0.164 0.84233 0.41 1.123 0.738 0.30467 0.304 0.52733 0.6903 0.668 1.159 0.16333 0.4447 0.245 0.9597 0.245 1.545z"/>
    </g>
</svg>
